<svg width="512" height="512" version="1.1" xmlns="http://www.w3.org/2000/svg" desc="Created with imagetracer.js version 1.2.6" ><path fill="rgb(237,144,5)" stroke="rgb(237,144,5)" stroke-width="1" opacity="1" d="M 238.5 11 L 254 11.5 L 238.5 12 L 238.5 11 Z " /><path fill="rgb(237,144,5)" stroke="rgb(237,144,5)" stroke-width="1" opacity="1" d="M 259.5 11 L 274.5 11 L 275.5 12 L 285 12.5 L 275.5 13 L 274.5 12 L 259.5 12 L 259.5 11 Z " /><path fill="rgb(237,144,5)" stroke="rgb(237,144,5)" stroke-width="1" opacity="1" d="M 227.5 12 L 237 12.5 L 227.5 13 L 227.5 12 Z " /><path fill="rgb(237,144,5)" stroke="rgb(237,144,5)" stroke-width="1" opacity="1" d="M 220.5 13 L 225 13.5 L 220.5 14 L 220.5 13 Z " /><path fill="rgb(237,144,5)" stroke="rgb(237,144,5)" stroke-width="1" opacity="1" d="M 288.5 13 L 293 13.5 L 288.5 14 L 288.5 13 Z " /><path fill="rgb(237,144,5)" stroke="rgb(237,144,5)" stroke-width="1" opacity="1" d="M 214.5 14 L 219 14.5 L 208.5 16 L 208.5 15 Q 213.3 16.3 214.5 14 Z " /><path fill="rgb(237,144,5)" stroke="rgb(237,144,5)" stroke-width="1" opacity="1" d="M 294.5 14 L 317.5 18 L 340 25.5 L 337.5 26 Q 319 17.5 294.5 15 L 294.5 14 Z " /><path fill="rgb(237,144,5)" stroke="rgb(237,144,5)" stroke-width="1" opacity="1" d="M 204.5 16 L 207 16.5 L 199.5 18 L 199.5 17 L 204.5 16 Z " /><path fill="rgb(237,144,5)" stroke="rgb(237,144,5)" stroke-width="1" opacity="1" d="M 195.5 18 L 198 18.5 L 170.5 27 L 170.5 26 L 195.5 18 Z " /><path fill="rgb(237,144,5)" stroke="rgb(237,144,5)" stroke-width="1" opacity="1" d="M 341.5 26 L 348 28.5 L 346.5 29 L 341.5 27 L 341.5 26 Z " /><path fill="rgb(237,144,5)" stroke="rgb(237,144,5)" stroke-width="1" opacity="1" d="M 167.5 27 L 169 27.5 L 165.5 29 L 165.5 28 L 167.5 27 Z " /><path fill="rgb(237,144,5)" stroke="rgb(237,144,5)" stroke-width="1" opacity="1" d="M 162.5 29 L 164 29.5 Q 109.9 51.9 74 92.5 Q 46.3 122.8 29.5 164 L 29 162.5 Q 51.8 108.8 92.5 73 Q 122.3 45.8 162.5 29 Z " /><path fill="rgb(237,144,5)" stroke="rgb(237,144,5)" stroke-width="1" opacity="1" d="M 349.5 29 Q 404.2 51.3 440 92.5 Q 455.2 109.3 467 129.5 L 464 127.5 L 454 111.5 L 437 90 Q 434.3 91.1 435 88.5 L 400.5 58 L 375.5 42 L 349.5 30 L 349.5 29 Z " /><path fill="rgb(237,144,5)" stroke="rgb(237,144,5)" stroke-width="1" opacity="1" d="M 178.5 113 L 186 113.5 L 178.5 114 L 178.5 113 Z " /><path fill="rgb(237,144,5)" stroke="rgb(237,144,5)" stroke-width="1" opacity="1" d="M 187.5 114 L 192 116.5 L 192.5 118 L 215.5 118 L 220 119.5 L 216.5 120 L 215.5 119 L 192.5 119 L 191 117.5 Q 191.8 115.3 189.5 116 L 187.5 114 Z " /><path fill="rgb(237,144,5)" stroke="rgb(237,144,5)" stroke-width="1" opacity="1" d="M 173.5 115 L 170 119.5 Q 170.5 123.5 167.5 124 L 165 123.5 L 169 121.5 L 169 119.5 L 173.5 115 Z " /><path fill="rgb(237,144,5)" stroke="rgb(237,144,5)" stroke-width="1" opacity="1" d="M 221.5 120 L 228 122.5 L 226.5 122 L 221.5 121 L 221.5 120 Z " /><path fill="rgb(237,144,5)" stroke="rgb(237,144,5)" stroke-width="1" opacity="1" d="M 229.5 123 L 234 125.5 L 232.5 125 Q 228.7 124.7 229.5 123 Z " /><path fill="rgb(237,144,5)" stroke="rgb(237,144,5)" stroke-width="1" opacity="1" d="M 156.5 126 L 158 126.5 L 154.5 128 L 154.5 127 L 156.5 126 Z " /><path fill="rgb(237,144,5)" stroke="rgb(237,144,5)" stroke-width="1" opacity="1" d="M 235.5 126 L 240 129.5 L 242 132.5 Q 247.6 137.4 250 145.5 L 249 145.5 L 244 135.5 L 235.5 126 Z " /><path fill="rgb(237,144,5)" stroke="rgb(237,144,5)" stroke-width="1" opacity="1" d="M 148.5 130 L 147.5 132 L 145.5 133 L 146.5 131 L 148.5 130 Z " /><path fill="rgb(237,144,5)" stroke="rgb(237,144,5)" stroke-width="1" opacity="1" d="M 341.5 131 L 342.5 133 L 341 132.5 Q 339.6 138.6 334.5 141 L 332 142.5 L 339 147.5 L 341.5 152 L 343.5 149 L 343 150.5 Q 344.1 154.7 340 153 L 337 146 L 331 142.5 L 339 135.5 Q 338.5 131.5 341.5 131 Z " /><path fill="rgb(237,144,5)" stroke="rgb(237,144,5)" stroke-width="1" opacity="1" d="M 392.5 131 Q 398.6 132.4 401 137.5 L 410 147.5 L 399 137.5 L 395.5 133 L 392.5 132 L 381 142.5 L 366.5 159 Q 364.3 158.3 365 160.5 Q 362.3 161.6 363 165 L 377 165.5 L 363.5 166 L 362 162.5 L 377 146.5 L 377 145 Q 379.7 146.1 379 143.5 L 392.5 131 Z " /><path fill="rgb(237,144,5)" stroke="rgb(237,144,5)" stroke-width="1" opacity="1" d="M 467.5 131 Q 478.4 146.6 485 166.5 L 484 166.5 Q 477.6 147.4 467 132.5 L 467.5 131 Z " /><path fill="rgb(237,144,5)" stroke="rgb(237,144,5)" stroke-width="1" opacity="1" d="M 143.5 133 L 141.5 136 L 132 144.5 L 128.5 150 L 129 148.5 Q 133 139 141.5 134 L 143.5 133 Z " /><path fill="rgb(237,144,5)" stroke="rgb(237,144,5)" stroke-width="1" opacity="1" d="M 343.5 134 L 346 139 L 351 141 L 349.5 144 L 344.5 148 L 348.5 143 L 350 142.5 L 344 137.5 L 343.5 134 Z " /><path fill="rgb(237,144,5)" stroke="rgb(237,144,5)" stroke-width="1" opacity="1" d="M 250.5 147 L 252 150.5 L 251 150.5 L 250.5 147 Z " /><path fill="rgb(237,144,5)" stroke="rgb(237,144,5)" stroke-width="1" opacity="1" d="M 192.5 149 L 193 151 L 202.5 157 L 210.5 159 L 217.5 159 L 223.5 155 L 224 157 Q 218.6 161.8 205.5 160 Q 198 158.5 194 153.5 L 192.5 149 Z " /><path fill="rgb(237,144,5)" stroke="rgb(237,144,5)" stroke-width="1" opacity="1" d="M 410.5 149 L 413 150.5 L 423 162.5 L 422 162.5 L 410.5 149 Z " /><path fill="rgb(237,144,5)" stroke="rgb(237,144,5)" stroke-width="1" opacity="1" d="M 226.5 152 L 225.5 154 L 226.5 152 Z " /><path fill="rgb(237,144,5)" stroke="rgb(237,144,5)" stroke-width="1" opacity="1" d="M 109.5 156 Q 112.8 154.9 112 157.5 L 113 160 L 116 161.5 L 113.5 165 Q 110.5 164.3 112 168 L 109.5 168 L 105.5 163 Q 103.3 163.8 104 161.5 L 108 158.5 L 109.5 156 Z M 109 157 L 109 159 L 106 161 L 109 166 Q 108 168 111 167 L 114 163 Q 116 164 115 161 L 111 159 Q 112 156 109 157 Z " /><path fill="rgb(237,144,5)" stroke="rgb(237,144,5)" stroke-width="1" opacity="1" d="M 256.5 158 Q 261.3 157.3 263 159.5 L 261.5 160 L 256.5 159 L 256.5 158 Z " /><path fill="rgb(237,144,5)" stroke="rgb(237,144,5)" stroke-width="1" opacity="1" d="M 264.5 160 L 267 160.5 L 264.5 161 L 264.5 160 Z " /><path fill="rgb(237,144,5)" stroke="rgb(237,144,5)" stroke-width="1" opacity="1" d="M 123.5 161 L 124 164.5 L 123 164.5 L 123.5 161 Z " /><path fill="rgb(237,144,5)" stroke="rgb(237,144,5)" stroke-width="1" opacity="1" d="M 270.5 162 L 284 169.5 L 287 174.5 L 286 174.5 L 283 169 L 270.5 163 L 270.5 162 Z " /><path fill="rgb(237,144,5)" stroke="rgb(237,144,5)" stroke-width="1" opacity="1" d="M 422.5 164 L 423 166 L 406 165.5 L 421.5 165 L 422.5 164 Z " /><path fill="rgb(237,144,5)" stroke="rgb(237,144,5)" stroke-width="1" opacity="1" d="M 28.5 165 L 29 166.5 L 27.5 169 L 27 167.5 L 28.5 165 Z " /><path fill="rgb(237,144,5)" stroke="rgb(237,144,5)" stroke-width="1" opacity="1" d="M 378.5 165 L 380 165.5 L 380 190.5 L 381.5 192 L 404.5 192 L 406 191.5 L 404.5 193 L 380 193 L 379 190.5 L 379 166.5 L 378.5 165 Z " /><path fill="rgb(237,144,5)" stroke="rgb(237,144,5)" stroke-width="1" opacity="1" d="M 122.5 168 L 123 172.5 L 122 172.5 L 122.5 168 Z " /><path fill="rgb(237,144,5)" stroke="rgb(237,144,5)" stroke-width="1" opacity="1" d="M 485.5 168 L 488 174.5 L 487 174.5 L 485.5 168 Z " /><path fill="rgb(237,144,5)" stroke="rgb(237,144,5)" stroke-width="1" opacity="1" d="M 26.5 170 L 27 171.5 L 21.5 187 L 21 184.5 L 26.5 170 Z " /><path fill="rgb(237,144,5)" stroke="rgb(237,144,5)" stroke-width="1" opacity="1" d="M 342.5 171 L 345 171.5 L 342.5 172 L 342.5 171 Z " /><path fill="rgb(237,144,5)" stroke="rgb(237,144,5)" stroke-width="1" opacity="1" d="M 437.5 171 L 437 172.5 Q 436.3 174.8 438.5 174 Q 450.8 179.2 459 188.5 L 465 197.5 L 463 196.5 L 456 186 L 454 186 Q 455.1 183.3 452.5 184 Q 445.7 177.3 436 173.5 L 437.5 171 Z " /><path fill="rgb(237,144,5)" stroke="rgb(237,144,5)" stroke-width="1" opacity="1" d="M 444.5 171 L 450 172.5 L 448.5 173 L 444.5 172 L 444.5 171 Z " /><path fill="rgb(237,144,5)" stroke="rgb(237,144,5)" stroke-width="1" opacity="1" d="M 351.5 173 L 350.5 175 L 349 174.5 L 351.5 173 Z " /><path fill="rgb(237,144,5)" stroke="rgb(237,144,5)" stroke-width="1" opacity="1" d="M 77.5 174 L 79 174.5 L 77 175 L 76 178.5 L 77.5 181 L 75 177.5 L 77.5 174 Z " /><path fill="rgb(237,144,5)" stroke="rgb(237,144,5)" stroke-width="1" opacity="1" d="M 80.5 174 L 83 175.5 L 84 178.5 L 79.5 182 L 79.5 181 L 82 179.5 L 83 177.5 L 82 175 L 80.5 174 Z " /><path fill="rgb(237,144,5)" stroke="rgb(237,144,5)" stroke-width="1" opacity="1" d="M 122.5 174 L 123 179.5 L 122 179.5 L 122.5 174 Z " /><path fill="rgb(237,144,5)" stroke="rgb(237,144,5)" stroke-width="1" opacity="1" d="M 406.5 174 L 407 176.5 L 406 176.5 L 406.5 174 Z " /><path fill="rgb(237,144,5)" stroke="rgb(237,144,5)" stroke-width="1" opacity="1" d="M 454.5 174 L 469 182.5 L 467.5 183 Q 462.6 177.4 454.5 175 L 454.5 174 Z " /><path fill="rgb(237,144,5)" stroke="rgb(237,144,5)" stroke-width="1" opacity="1" d="M 287.5 176 L 288 179.5 L 287 179.5 L 287.5 176 Z " /><path fill="rgb(237,144,5)" stroke="rgb(237,144,5)" stroke-width="1" opacity="1" d="M 330.5 176 L 329.5 178 L 320.5 184 L 323.5 180 L 330.5 176 Z " /><path fill="rgb(237,144,5)" stroke="rgb(237,144,5)" stroke-width="1" opacity="1" d="M 344.5 176 L 346 176.5 L 343.5 178 L 344.5 176 Z " /><path fill="rgb(237,144,5)" stroke="rgb(237,144,5)" stroke-width="1" opacity="1" d="M 488.5 176 Q 495.1 191 497 210 L 494 209.5 L 496 209 L 496 204.5 L 488 178.5 L 488.5 176 Z " /><path fill="rgb(237,144,5)" stroke="rgb(237,144,5)" stroke-width="1" opacity="1" d="M 341.5 178 L 339.5 181 L 332 186.5 Q 325.3 193.8 321.5 204 L 321 202.5 Q 325.8 190.8 334.5 183 L 341.5 178 Z " /><path fill="rgb(237,144,5)" stroke="rgb(237,144,5)" stroke-width="1" opacity="1" d="M 406.5 178 L 407 184.5 L 406 184.5 L 406.5 178 Z " /><path fill="rgb(237,144,5)" stroke="rgb(237,144,5)" stroke-width="1" opacity="1" d="M 223 183 L 259 183.5 L 256.5 185 L 244.5 185 L 243.5 186 L 232.5 187 L 210.5 197 L 194.5 202 L 175 203 L 175.5 198 L 176.5 199 L 184.5 199 L 192.5 197 L 195.5 198 L 200.5 195 L 202 195.5 L 202.5 194 L 203.5 195 Q 205.3 191.9 207 193.5 Q 206.3 191.3 208.5 192 L 213.5 189 L 215 189.5 Q 214.3 187.3 216.5 188 L 221.5 184 L 223 184.5 L 223 183 Z " /><path fill="rgb(237,144,5)" stroke="rgb(237,144,5)" stroke-width="1" opacity="1" d="M 285.5 183 L 281.5 188 L 278.5 189 L 278.5 188 L 285.5 183 Z " /><path fill="rgb(237,144,5)" stroke="rgb(237,144,5)" stroke-width="1" opacity="1" d="M 123.5 184 L 124 187.5 L 123 187.5 L 123.5 184 Z " /><path fill="rgb(237,144,5)" stroke="rgb(237,144,5)" stroke-width="1" opacity="1" d="M 318.5 184 L 314 189.5 L 310.5 194 L 313 190.5 L 318.5 184 Z " /><path fill="rgb(237,144,5)" stroke="rgb(237,144,5)" stroke-width="1" opacity="1" d="M 470.5 184 L 480 195.5 L 478 194.5 L 470.5 184 Z " /><path fill="rgb(237,144,5)" stroke="rgb(237,144,5)" stroke-width="1" opacity="1" d="M 406.5 186 L 407 188.5 L 406 188.5 L 406.5 186 Z " /><path fill="rgb(237,144,5)" stroke="rgb(237,144,5)" stroke-width="1" opacity="1" d="M 20.5 188 L 21 191.5 L 18.5 198 L 18 195.5 L 20.5 188 Z " /><path fill="rgb(237,144,5)" stroke="rgb(237,144,5)" stroke-width="1" opacity="1" d="M 275.5 189 L 277 189.5 L 274.5 191 L 266.5 192 L 266.5 191 L 275.5 189 Z " /><path fill="rgb(237,144,5)" stroke="rgb(237,144,5)" stroke-width="1" opacity="1" d="M 125.5 192 L 126 195 L 124 194.5 L 125.5 192 Z " /><path fill="rgb(237,144,5)" stroke="rgb(237,144,5)" stroke-width="1" opacity="1" d="M 154.5 193 L 166.5 198 L 168.5 198 Q 174.2 196.4 172 202 L 150.5 197 Q 147.7 198.3 150 199.5 L 150 210.5 L 152 216.5 L 154 234.5 L 156 239.5 L 156 246.5 L 158 250.5 L 158 255.5 L 163 276.5 L 167.5 284 L 173.5 285 L 174.5 284 L 193.5 283 L 203.5 281 L 236.5 279 L 237.5 278 L 250.5 277 L 267 274 L 264.5 278 L 252.5 284 L 234.5 289 L 231.5 291 L 223.5 292 L 223.5 291 Q 228.3 292.3 227 289 L 225 288.5 L 237.5 287 L 251.5 283 L 253 281.5 L 249.5 281 L 241.5 283 L 228.5 283 L 227.5 284 L 190.5 285 L 189.5 286 L 180.5 286 L 163.5 289 Q 160.3 286.3 160 280.5 L 160.5 279 Q 157.1 279.9 159 274.5 L 157 270.5 L 157 265.5 L 154 252.5 L 155 250 Q 151 251.4 153 244.5 L 151 235.5 L 152 233.5 L 150 230.5 L 149 220.5 L 150 217.5 L 148 215.5 L 147 199.5 L 148 195 L 150.5 196 L 154.5 193 Z " /><path fill="rgb(237,144,5)" stroke="rgb(237,144,5)" stroke-width="1" opacity="1" d="M 266.5 193 L 267 197.5 L 266 197.5 L 266.5 193 Z " /><path fill="rgb(237,144,5)" stroke="rgb(237,144,5)" stroke-width="1" opacity="1" d="M 146.5 194 L 147 196.5 L 146 196.5 L 146.5 194 Z " /><path fill="rgb(237,144,5)" stroke="rgb(237,144,5)" stroke-width="1" opacity="1" d="M 121.5 195 L 123 195.5 L 120.5 197 L 121.5 195 Z " /><path fill="rgb(237,144,5)" stroke="rgb(237,144,5)" stroke-width="1" opacity="1" d="M 309.5 195 L 309 196.5 L 304.5 205 L 304 203.5 L 309.5 195 Z " /><path fill="rgb(237,144,5)" stroke="rgb(237,144,5)" stroke-width="1" opacity="1" d="M 117.5 197 L 119 197.5 Q 113.9 202.9 101.5 201 L 101.5 200 Q 113.1 202.1 117.5 197 Z " /><path fill="rgb(237,144,5)" stroke="rgb(237,144,5)" stroke-width="1" opacity="1" d="M 138.5 197 L 143 199.5 L 144 210.5 L 143 215.5 L 144 215.5 L 144.5 214 L 145 216.5 L 144 220.5 Q 146.8 223.2 146 229.5 L 145 232 L 147 232.5 L 146 237.5 L 148 237.5 L 149 246.5 L 148 250.5 L 150 250.5 L 149 254.5 L 151 259.5 L 150 261.5 L 152 261.5 L 151 266.5 L 153 267 L 152 271 Q 155.7 269.6 154 275.5 L 155 277.5 L 154 280.5 L 156 280.5 L 155 282.5 Q 158 283.8 157 288 L 146.5 289 L 130.5 293 L 131 291.5 Q 131.8 289.3 129.5 290 L 123.5 278 Q 120.9 278.7 122 276 L 120 276 L 120 271.5 L 118 264 L 122 264 L 122 270.5 L 124 277 Q 132.8 274.6 138 267.5 Q 143.8 261.8 144 250.5 Q 142.5 244 137.5 241 L 124.5 237 L 113 237 L 109 221.5 L 108 211 L 111.5 211 L 116.5 208 L 119 221.5 L 121.5 226 L 134 222 L 131 200 L 138.5 197 Z " /><path fill="rgb(237,144,5)" stroke="rgb(237,144,5)" stroke-width="1" opacity="1" d="M 480.5 197 L 485 205.5 L 484 205.5 L 480.5 197 Z " /><path fill="rgb(237,144,5)" stroke="rgb(237,144,5)" stroke-width="1" opacity="1" d="M 17.5 199 L 18 203.5 L 16.5 207 L 16 204.5 L 17.5 199 Z " /><path fill="rgb(237,144,5)" stroke="rgb(237,144,5)" stroke-width="1" opacity="1" d="M 465.5 199 L 467 201.5 L 465 200.5 L 465.5 199 Z " /><path fill="rgb(237,144,5)" stroke="rgb(237,144,5)" stroke-width="1" opacity="1" d="M 87.5 201 L 100 201.5 L 87.5 202 L 87.5 201 Z " /><path fill="rgb(237,144,5)" stroke="rgb(237,144,5)" stroke-width="1" opacity="1" d="M 356.5 201 L 433.5 201 L 438 204.5 L 437.5 206 L 435.5 203 L 433.5 202 L 356.5 202 L 354 203 L 353 205.5 L 352.5 256 L 352 205.5 L 354.5 202 L 356.5 201 Z " /><path fill="rgb(237,144,5)" stroke="rgb(237,144,5)" stroke-width="1" opacity="1" d="M 80.5 202 L 86 202.5 L 80.5 203 L 80.5 202 Z " /><path fill="rgb(237,144,5)" stroke="rgb(237,144,5)" stroke-width="1" opacity="1" d="M 70.5 203 L 77 203.5 L 66.5 205 L 66.5 204 L 70.5 203 Z " /><path fill="rgb(237,144,5)" stroke="rgb(237,144,5)" stroke-width="1" opacity="1" d="M 267.5 203 L 268 209.5 L 267 209.5 L 267.5 203 Z " /><path fill="rgb(237,144,5)" stroke="rgb(237,144,5)" stroke-width="1" opacity="1" d="M 64.5 205 L 64.5 207 L 71 207.5 L 64.5 208 Q 61.5 206.5 64.5 205 Z " /><path fill="rgb(237,144,5)" stroke="rgb(237,144,5)" stroke-width="1" opacity="1" d="M 303.5 206 L 304 207.5 L 302.5 211 L 302 208.5 L 303.5 206 Z " /><path fill="rgb(237,144,5)" stroke="rgb(237,144,5)" stroke-width="1" opacity="1" d="M 468.5 206 L 470 210.5 L 469 210.5 L 468.5 206 Z " /><path fill="rgb(237,144,5)" stroke="rgb(237,144,5)" stroke-width="1" opacity="1" d="M 99.5 207 L 103 207.5 L 99.5 208 L 99.5 207 Z " /><path fill="rgb(237,144,5)" stroke="rgb(237,144,5)" stroke-width="1" opacity="1" d="M 438.5 207 L 439 256 L 468.5 256 L 471 257 L 472 260.5 L 471 260.5 L 468.5 257 L 439.5 257 L 438 255.5 L 438.5 207 Z " /><path fill="rgb(237,144,5)" stroke="rgb(237,144,5)" stroke-width="1" opacity="1" d="M 485.5 207 L 487 211 L 489 211.5 L 487.5 212 Q 483.8 210.2 485.5 207 Z " /><path fill="rgb(237,144,5)" stroke="rgb(237,144,5)" stroke-width="1" opacity="1" d="M 15.5 208 L 16 213.5 L 13.5 225 L 13 219.5 L 15.5 208 Z " /><path fill="rgb(237,144,5)" stroke="rgb(237,144,5)" stroke-width="1" opacity="1" d="M 77.5 208 L 91 208.5 L 77.5 209 L 77.5 208 Z " /><path fill="rgb(237,144,5)" stroke="rgb(237,144,5)" stroke-width="1" opacity="1" d="M 490.5 210 L 493 210.5 L 490.5 211 L 490.5 210 Z " /><path fill="rgb(237,144,5)" stroke="rgb(237,144,5)" stroke-width="1" opacity="1" d="M 268.5 211 L 269 218.5 L 268 218.5 L 268.5 211 Z " /><path fill="rgb(237,144,5)" stroke="rgb(237,144,5)" stroke-width="1" opacity="1" d="M 287 211 L 293 211.5 Q 288.4 210.9 287 213.5 L 289 216.5 L 286 214.5 L 287 211 Z " /><path fill="rgb(237,144,5)" stroke="rgb(237,144,5)" stroke-width="1" opacity="1" d="M 318.5 211 L 319 216 Q 327.3 214.7 331 217 L 332 221.5 L 323.5 229 L 323.5 228 L 331 221.5 Q 331.5 217.5 328.5 217 L 318 217 L 318.5 211 Z " /><path fill="rgb(237,144,5)" stroke="rgb(237,144,5)" stroke-width="1" opacity="1" d="M 294.5 212 L 299 212.5 L 294.5 213 L 294.5 212 Z " /><path fill="rgb(237,144,5)" stroke="rgb(237,144,5)" stroke-width="1" opacity="1" d="M 470.5 212 L 471 214 L 468 213.5 L 470.5 212 Z " /><path fill="rgb(237,144,5)" stroke="rgb(237,144,5)" stroke-width="1" opacity="1" d="M 101.5 213 L 102 217.5 L 101 217.5 L 101.5 213 Z " /><path fill="rgb(237,144,5)" stroke="rgb(237,144,5)" stroke-width="1" opacity="1" d="M 459.5 214 L 465 214.5 L 458.5 216 L 459.5 214 Z " /><path fill="rgb(237,144,5)" stroke="rgb(237,144,5)" stroke-width="1" opacity="1" d="M 290.5 217 L 293 217.5 L 290.5 218 L 290.5 217 Z " /><path fill="rgb(237,144,5)" stroke="rgb(237,144,5)" stroke-width="1" opacity="1" d="M 457.5 217 L 482 244.5 L 475 238.5 L 458 219.5 L 457.5 217 Z " /><path fill="rgb(237,144,5)" stroke="rgb(237,144,5)" stroke-width="1" opacity="1" d="M 498.5 217 L 499 218.5 L 497 219.5 L 498.5 217 Z " /><path fill="rgb(237,144,5)" stroke="rgb(237,144,5)" stroke-width="1" opacity="1" d="M 294.5 218 L 297 218.5 L 294.5 219 L 294.5 218 Z " /><path fill="rgb(237,144,5)" stroke="rgb(237,144,5)" stroke-width="1" opacity="1" d="M 380.5 218 L 381 221.5 L 380 221.5 L 380.5 218 Z " /><path fill="rgb(237,144,5)" stroke="rgb(237,144,5)" stroke-width="1" opacity="1" d="M 102.5 219 L 103 220.5 L 101.5 222 L 80.5 222 L 80.5 221 L 101.5 221 L 102.5 219 Z " /><path fill="rgb(237,144,5)" stroke="rgb(237,144,5)" stroke-width="1" opacity="1" d="M 271.5 219 Q 277.3 218.3 280 220.5 L 277.5 221 Q 276.3 218.7 271.5 220 L 271.5 219 Z " /><path fill="rgb(237,144,5)" stroke="rgb(237,144,5)" stroke-width="1" opacity="1" d="M 298.5 219 L 305 220.5 L 301.5 221 L 298.5 220 L 298.5 219 Z " /><path fill="rgb(237,144,5)" stroke="rgb(237,144,5)" stroke-width="1" opacity="1" d="M 283.5 221 L 287 221.5 L 283.5 222 L 283.5 221 Z " /><path fill="rgb(237,144,5)" stroke="rgb(237,144,5)" stroke-width="1" opacity="1" d="M 499.5 221 L 501 237.5 L 500 237.5 L 499.5 221 Z " /><path fill="rgb(237,144,5)" stroke="rgb(237,144,5)" stroke-width="1" opacity="1" d="M 63.5 222 L 74 222.5 L 63.5 223 L 63.5 222 Z " /><path fill="rgb(237,144,5)" stroke="rgb(237,144,5)" stroke-width="1" opacity="1" d="M 288.5 222 L 296 223.5 L 292.5 224 L 288.5 223 L 288.5 222 Z " /><path fill="rgb(237,144,5)" stroke="rgb(237,144,5)" stroke-width="1" opacity="1" d="M 310.5 222 L 313 222.5 L 310.5 223 L 310.5 222 Z " /><path fill="rgb(237,144,5)" stroke="rgb(237,144,5)" stroke-width="1" opacity="1" d="M 51.5 223 L 62 223.5 Q 48.9 222.9 41 227.5 L 49 228.5 L 41.5 229 L 40 226.5 L 41.5 225 L 51.5 223 Z " /><path fill="rgb(237,144,5)" stroke="rgb(237,144,5)" stroke-width="1" opacity="1" d="M 314.5 223 L 317 223.5 L 314.5 224 L 314.5 223 Z " /><path fill="rgb(237,144,5)" stroke="rgb(237,144,5)" stroke-width="1" opacity="1" d="M 495.5 223 L 496 224.5 L 493.5 228 L 494 226.5 L 495.5 223 Z " /><path fill="rgb(237,144,5)" stroke="rgb(237,144,5)" stroke-width="1" opacity="1" d="M 298.5 224 L 301 224.5 L 298.5 225 L 298.5 224 Z " /><path fill="rgb(237,144,5)" stroke="rgb(237,144,5)" stroke-width="1" opacity="1" d="M 318.5 224 L 321 225.5 L 320.5 227 L 320 225 L 318.5 224 Z " /><path fill="rgb(237,144,5)" stroke="rgb(237,144,5)" stroke-width="1" opacity="1" d="M 302.5 225 L 308 226.5 L 306.5 227 L 302.5 226 L 302.5 225 Z " /><path fill="rgb(237,144,5)" stroke="rgb(237,144,5)" stroke-width="1" opacity="1" d="M 12.5 227 L 13 236.5 L 12 237.5 L 11.5 253 L 11 237.5 L 12 236.5 L 12.5 227 Z " /><path fill="rgb(237,144,5)" stroke="rgb(237,144,5)" stroke-width="1" opacity="1" d="M 269 227 L 273 227 L 273 235.5 L 272 236.5 L 271.5 260 L 271 245.5 L 270 243.5 L 270 241.5 L 270 232.5 L 269 227 Z " /><path fill="rgb(237,144,5)" stroke="rgb(237,144,5)" stroke-width="1" opacity="1" d="M 310.5 227 Q 316.9 227.1 319 231.5 L 318.5 237 Q 319.3 230.7 315.5 229 L 310.5 228 L 310.5 227 Z " /><path fill="rgb(237,144,5)" stroke="rgb(237,144,5)" stroke-width="1" opacity="1" d="M 82.5 228 L 104 228.5 L 82.5 229 L 82.5 228 Z " /><path fill="rgb(237,144,5)" stroke="rgb(237,144,5)" stroke-width="1" opacity="1" d="M 52.5 229 L 76 229.5 L 52.5 230 L 52.5 229 Z " /><path fill="rgb(237,144,5)" stroke="rgb(237,144,5)" stroke-width="1" opacity="1" d="M 104.5 230 L 105 232.5 L 104 232.5 L 104.5 230 Z " /><path fill="rgb(237,144,5)" stroke="rgb(237,144,5)" stroke-width="1" opacity="1" d="M 492.5 230 L 493 231.5 L 491 232.5 L 492.5 230 Z " /><path fill="rgb(237,144,5)" stroke="rgb(237,144,5)" stroke-width="1" opacity="1" d="M 337.5 232 Q 342 231 343 233.5 Q 344 239 340.5 240 Q 336.5 240.5 336 237.5 L 335 235.5 L 337.5 232 Z M 337 233 L 336 236 L 339 239 L 342 238 L 342 233 L 337 233 Z " /><path fill="rgb(237,144,5)" stroke="rgb(237,144,5)" stroke-width="1" opacity="1" d="M 105.5 234 L 106 239 L 85 238.5 L 105 238 L 105.5 234 Z " /><path fill="rgb(237,144,5)" stroke="rgb(237,144,5)" stroke-width="1" opacity="1" d="M 490.5 234 L 491 235.5 L 489.5 238 L 489 236.5 L 490.5 234 Z " /><path fill="rgb(237,144,5)" stroke="rgb(237,144,5)" stroke-width="1" opacity="1" d="M 206.5 237 Q 215.1 237.9 219 243.5 L 216.5 247 Q 207.9 248.1 206 242.5 L 205 238.5 L 206.5 237 Z M 211 241 L 212 245 L 213 242 L 211 241 Z " /><path fill="rgb(237,144,5)" stroke="rgb(237,144,5)" stroke-width="1" opacity="1" d="M 407.5 237 L 423.5 237 L 424 238.5 L 425 242.5 L 422.5 247 L 408.5 247 L 406 246 L 406 238.5 L 407.5 237 Z " /><path fill="rgb(237,144,5)" stroke="rgb(237,144,5)" stroke-width="1" opacity="1" d="M 72.5 239 L 84 239.5 L 72.5 240 L 72.5 239 Z " /><path fill="rgb(237,144,5)" stroke="rgb(237,144,5)" stroke-width="1" opacity="1" d="M 317.5 239 L 318 241.5 L 317 241.5 L 317.5 239 Z " /><path fill="rgb(237,144,5)" stroke="rgb(237,144,5)" stroke-width="1" opacity="1" d="M 55.5 240 L 67 240.5 L 55.5 241 L 55.5 240 Z " /><path fill="rgb(237,144,5)" stroke="rgb(237,144,5)" stroke-width="1" opacity="1" d="M 501.5 240 L 502 272.5 L 501 272.5 L 501.5 240 Z " /><path fill="rgb(237,144,5)" stroke="rgb(237,144,5)" stroke-width="1" opacity="1" d="M 45.5 241 L 54 241.5 L 45.5 242 L 45.5 241 Z " /><path fill="rgb(237,144,5)" stroke="rgb(237,144,5)" stroke-width="1" opacity="1" d="M 37.5 242 L 44 242.5 L 37.5 243 L 37.5 242 Z " /><path fill="rgb(237,144,5)" stroke="rgb(237,144,5)" stroke-width="1" opacity="1" d="M 28.5 243 L 35 243.5 L 18.5 246 L 16 247.5 Q 18.8 250.2 25 249.5 L 18.5 250 L 15 249 Q 13.3 244.9 17.5 246 L 28.5 243 Z " /><path fill="rgb(237,144,5)" stroke="rgb(237,144,5)" stroke-width="1" opacity="1" d="M 486.5 243 L 487 245 L 483.5 246 L 483.5 245 L 486.5 243 Z " /><path fill="rgb(237,144,5)" stroke="rgb(237,144,5)" stroke-width="1" opacity="1" d="M 119 245 L 134.5 246 L 138 249.5 L 139 252.5 L 135.5 257 L 130.5 259 Q 119 257.5 111.5 260 L 104.5 265 L 100 261.5 L 101.5 262 L 105 260.5 Q 104.3 258.3 106.5 259 L 120 252.5 L 119 245 Z " /><path fill="rgb(237,144,5)" stroke="rgb(237,144,5)" stroke-width="1" opacity="1" d="M 316.5 245 L 317 252.5 L 315.5 258 L 315 253.5 L 316.5 245 Z " /><path fill="rgb(237,144,5)" stroke="rgb(237,144,5)" stroke-width="1" opacity="1" d="M 27.5 250 L 37 250.5 L 27.5 251 L 27.5 250 Z " /><path fill="rgb(237,144,5)" stroke="rgb(237,144,5)" stroke-width="1" opacity="1" d="M 359 250 L 362.5 251 L 363.5 250 L 428.5 250 L 432 251.5 L 359 252 L 359 250 Z " /><path fill="rgb(237,144,5)" stroke="rgb(237,144,5)" stroke-width="1" opacity="1" d="M 39.5 251 L 86.5 251 L 87 252.5 L 82.5 257 L 60.5 257 L 60.5 256 L 82.5 256 L 86 252.5 L 39.5 252 L 39.5 251 Z " /><path fill="rgb(237,144,5)" stroke="rgb(237,144,5)" stroke-width="1" opacity="1" d="M 293 251 L 305 253 Q 306.3 257.6 303.5 259 Q 295.3 260.3 292 256.5 L 293 251 Z " /><path fill="rgb(237,144,5)" stroke="rgb(237,144,5)" stroke-width="1" opacity="1" d="M 326.5 256 L 329 256.5 L 323.5 260 L 323 258.5 L 326.5 256 Z " /><path fill="rgb(237,144,5)" stroke="rgb(237,144,5)" stroke-width="1" opacity="1" d="M 47.5 257 L 59 257.5 L 47.5 258 L 47.5 257 Z " /><path fill="rgb(237,144,5)" stroke="rgb(237,144,5)" stroke-width="1" opacity="1" d="M 41.5 258 L 46 258.5 L 41 259.5 L 41.5 261 Q 39.3 261.8 40 259.5 L 41.5 258 Z " /><path fill="rgb(237,144,5)" stroke="rgb(237,144,5)" stroke-width="1" opacity="1" d="M 11.5 259 L 13 285.5 L 12 285.5 L 11.5 259 Z " /><path fill="rgb(237,144,5)" stroke="rgb(237,144,5)" stroke-width="1" opacity="1" d="M 43.5 261 L 47 261.5 L 43.5 262 L 43.5 261 Z " /><path fill="rgb(237,144,5)" stroke="rgb(237,144,5)" stroke-width="1" opacity="1" d="M 314.5 261 L 315 265.5 L 314 265.5 L 314.5 261 Z " /><path fill="rgb(237,144,5)" stroke="rgb(237,144,5)" stroke-width="1" opacity="1" d="M 48.5 262 L 57 262.5 L 48.5 263 L 48.5 262 Z " /><path fill="rgb(237,144,5)" stroke="rgb(237,144,5)" stroke-width="1" opacity="1" d="M 58.5 263 L 77.5 263 L 78 264.5 L 74.5 270 L 75 268.5 L 77 264.5 L 58.5 264 L 58.5 263 Z " /><path fill="rgb(237,144,5)" stroke="rgb(237,144,5)" stroke-width="1" opacity="1" d="M 297.5 265 L 298.5 266 L 308 266 L 306.5 269 L 299.5 271 L 297.5 265 Z " /><path fill="rgb(237,144,5)" stroke="rgb(237,144,5)" stroke-width="1" opacity="1" d="M 111.5 266 L 110 268.5 L 112 275.5 L 111 275.5 L 109 268.5 L 111.5 266 Z " /><path fill="rgb(237,144,5)" stroke="rgb(237,144,5)" stroke-width="1" opacity="1" d="M 281.5 266 L 288 271.5 Q 289.9 276.9 286.5 276 L 287 274.5 L 281.5 266 Z " /><path fill="rgb(237,144,5)" stroke="rgb(237,144,5)" stroke-width="1" opacity="1" d="M 487.5 267 Q 490.1 266.3 489 269 Q 486.3 267.9 487 270.5 L 482 275.5 L 483.5 277 L 486 278.5 L 487.5 282 L 492.5 276 L 494 275.5 L 489 271.5 L 489.5 270 L 491.5 273 L 495 274 L 493.5 277 L 490 279.5 L 489 283 L 486 281.5 L 482.5 277 Q 479.5 277.7 481 274 L 486 270.5 L 487.5 267 Z " /><path fill="rgb(237,144,5)" stroke="rgb(237,144,5)" stroke-width="1" opacity="1" d="M 112.5 268 L 113 270.5 L 112 270.5 L 112.5 268 Z " /><path fill="rgb(237,144,5)" stroke="rgb(237,144,5)" stroke-width="1" opacity="1" d="M 235.5 268 L 236 270.5 L 235 270.5 L 235.5 268 Z " /><path fill="rgb(237,144,5)" stroke="rgb(237,144,5)" stroke-width="1" opacity="1" d="M 313.5 268 L 314 269.5 L 307.5 274 L 304.5 274 L 304.5 273 Q 311.1 273.6 313 269.5 L 313.5 268 Z " /><path fill="rgb(237,144,5)" stroke="rgb(237,144,5)" stroke-width="1" opacity="1" d="M 73.5 271 L 74 272.5 L 72.5 277 L 72 273.5 L 73.5 271 Z " /><path fill="rgb(237,144,5)" stroke="rgb(237,144,5)" stroke-width="1" opacity="1" d="M 51.5 273 L 56.5 280 L 60 281.5 Q 60.8 283.8 58.5 283 L 55 285 L 53 291 L 49 288.5 L 46.5 284 L 44 282.5 L 45.5 280 L 49 277.5 L 51.5 273 Z M 52 275 L 50 278 L 45 281 Q 44 284 47 283 L 52 290 L 53 287 L 58 283 Q 59 280 57 281 L 52 275 Z " /><path fill="rgb(237,144,5)" stroke="rgb(237,144,5)" stroke-width="1" opacity="1" d="M 273.5 274 L 274 277.5 L 273 280 L 276.5 279 L 278.5 280 L 278.5 278 L 283.5 277 L 282.5 279 L 279 280 Q 277.8 283 281.5 282 L 287.5 280 L 287.5 281 L 272.5 287 L 260.5 287 L 260.5 286 Q 268.8 284.8 272 278.5 L 273.5 274 Z " /><path fill="rgb(237,144,5)" stroke="rgb(237,144,5)" stroke-width="1" opacity="1" d="M 299.5 274 L 303 274.5 L 298.5 276 L 299.5 274 Z " /><path fill="rgb(237,144,5)" stroke="rgb(237,144,5)" stroke-width="1" opacity="1" d="M 500.5 275 L 501 283.5 L 499.5 292 L 499 284.5 L 500 283.5 L 500.5 275 Z " /><path fill="rgb(237,144,5)" stroke="rgb(237,144,5)" stroke-width="1" opacity="1" d="M 106.5 276 L 108 281.5 L 103.5 287 Q 100.2 288.1 101 285.5 L 100.5 284 L 103.5 286 L 106 283.5 L 106 281.5 L 106.5 276 Z " /><path fill="rgb(237,144,5)" stroke="rgb(237,144,5)" stroke-width="1" opacity="1" d="M 112.5 277 L 113 283.5 L 112 283.5 L 112.5 277 Z " /><path fill="rgb(237,144,5)" stroke="rgb(237,144,5)" stroke-width="1" opacity="1" d="M 297.5 277 L 298 278.5 L 289.5 286 L 290.5 284 L 297 278.5 L 297.5 277 Z " /><path fill="rgb(237,144,5)" stroke="rgb(237,144,5)" stroke-width="1" opacity="1" d="M 115.5 279 L 116 281.5 L 115 281.5 L 115.5 279 Z " /><path fill="rgb(237,144,5)" stroke="rgb(237,144,5)" stroke-width="1" opacity="1" d="M 83 284 L 85 284.5 L 83 285.5 L 83 284 Z " /><path fill="rgb(237,144,5)" stroke="rgb(237,144,5)" stroke-width="1" opacity="1" d="M 111.5 285 L 112 286.5 L 100.5 297 L 97.5 298 L 97.5 297 L 100.5 296 L 111 286.5 L 111.5 285 Z " /><path fill="rgb(237,144,5)" stroke="rgb(237,144,5)" stroke-width="1" opacity="1" d="M 85.5 286 L 89.5 291 Q 95.6 291.8 98 290 L 98.5 288 L 99 289.5 Q 97.3 294.8 88.5 293 L 84 291 Q 83 287.2 85.5 286 Z " /><path fill="rgb(237,144,5)" stroke="rgb(237,144,5)" stroke-width="1" opacity="1" d="M 287.5 286 L 286.5 288 L 283.5 289 L 283.5 288 L 287.5 286 Z " /><path fill="rgb(237,144,5)" stroke="rgb(237,144,5)" stroke-width="1" opacity="1" d="M 73.5 287 L 79.5 294 L 88 297.5 L 85.5 298 Q 77.4 295.1 73 288.5 L 73.5 287 Z " /><path fill="rgb(237,144,5)" stroke="rgb(237,144,5)" stroke-width="1" opacity="1" d="M 13.5 288 L 14 292.5 L 13 292.5 L 13.5 288 Z " /><path fill="rgb(237,144,5)" stroke="rgb(237,144,5)" stroke-width="1" opacity="1" d="M 118.5 288 L 121 293.5 L 120 293.5 L 119.5 292 Q 118 294.5 112.5 293 L 108 296.5 L 106.5 299 L 107 297.5 L 110.5 293 L 119 292 L 118.5 288 Z " /><path fill="rgb(237,144,5)" stroke="rgb(237,144,5)" stroke-width="1" opacity="1" d="M 251.5 289 L 260 291.5 L 257.5 292 Q 256.1 289.4 251.5 290 L 251.5 289 Z " /><path fill="rgb(237,144,5)" stroke="rgb(237,144,5)" stroke-width="1" opacity="1" d="M 188.5 290 Q 195.8 288.8 198 292.5 L 193.5 293 L 192 292.5 Q 192.9 295.5 188.5 294 L 181 296 L 182.5 300 L 192 308.5 L 199 316.5 L 195.5 318 L 165 294.5 L 166.5 293 L 180.5 292 L 188.5 290 Z " /><path fill="rgb(237,144,5)" stroke="rgb(237,144,5)" stroke-width="1" opacity="1" d="M 276.5 290 L 279 290.5 L 276.5 291 L 276.5 290 Z " /><path fill="rgb(237,144,5)" stroke="rgb(237,144,5)" stroke-width="1" opacity="1" d="M 245.5 291 L 247 291.5 L 242.5 293 L 242.5 292 L 245.5 291 Z " /><path fill="rgb(237,144,5)" stroke="rgb(237,144,5)" stroke-width="1" opacity="1" d="M 272.5 291 L 275 291.5 Q 270.5 294.5 261.5 293 L 261.5 292 L 271.5 292 L 272.5 291 Z " /><path fill="rgb(237,144,5)" stroke="rgb(237,144,5)" stroke-width="1" opacity="1" d="M 368.5 291 L 384.5 291 L 386 292.5 L 386 300 L 382.5 300 Q 381 302.5 375.5 301 L 374.5 300 L 367 300 L 367 292.5 L 368.5 291 Z " /><path fill="rgb(237,144,5)" stroke="rgb(237,144,5)" stroke-width="1" opacity="1" d="M 440.5 291 L 455.5 291 L 457 292.5 Q 458.8 299.3 455.5 301 L 440.5 301 L 438 298.5 Q 436.8 292.3 440.5 291 Z " /><path fill="rgb(237,144,5)" stroke="rgb(237,144,5)" stroke-width="1" opacity="1" d="M 14.5 294 L 19 317.5 L 27 342.5 L 26 342.5 L 17 313.5 L 14 298.5 L 14.5 294 Z " /><path fill="rgb(237,144,5)" stroke="rgb(237,144,5)" stroke-width="1" opacity="1" d="M 235.5 294 L 238 294.5 L 235.5 295 L 235.5 294 Z " /><path fill="rgb(237,144,5)" stroke="rgb(237,144,5)" stroke-width="1" opacity="1" d="M 498.5 294 L 499 297.5 L 494.5 317 L 494 312.5 L 496 308.5 L 498.5 294 Z " /><path fill="rgb(237,144,5)" stroke="rgb(237,144,5)" stroke-width="1" opacity="1" d="M 231.5 295 L 234 295.5 L 231.5 296 L 231.5 295 Z " /><path fill="rgb(237,144,5)" stroke="rgb(237,144,5)" stroke-width="1" opacity="1" d="M 227.5 296 L 230 296.5 L 223.5 298 L 223.5 297 L 227.5 296 Z " /><path fill="rgb(237,144,5)" stroke="rgb(237,144,5)" stroke-width="1" opacity="1" d="M 89.5 298 L 96 298.5 L 89.5 299 L 89.5 298 Z " /><path fill="rgb(237,144,5)" stroke="rgb(237,144,5)" stroke-width="1" opacity="1" d="M 218.5 298 L 221 298.5 L 218.5 299 L 218.5 298 Z " /><path fill="rgb(237,144,5)" stroke="rgb(237,144,5)" stroke-width="1" opacity="1" d="M 63.5 299 Q 68 298 69 300.5 L 68.5 302 Q 67.8 299.3 63.5 300 Q 61.3 300.8 62 304.5 Q 62.5 307.5 66.5 307 L 69 305.5 Q 68.5 308.5 64.5 308 L 62 307 L 61 301.5 L 63.5 299 Z " /><path fill="rgb(237,144,5)" stroke="rgb(237,144,5)" stroke-width="1" opacity="1" d="M 214.5 299 L 217 299.5 Q 214.8 300.8 217.5 302 L 219 302.5 L 217.5 303 L 214.5 299 Z " /><path fill="rgb(237,144,5)" stroke="rgb(237,144,5)" stroke-width="1" opacity="1" d="M 105.5 300 L 106 301.5 L 104.5 304 L 104 302.5 L 105.5 300 Z " /><path fill="rgb(237,144,5)" stroke="rgb(237,144,5)" stroke-width="1" opacity="1" d="M 234.5 301 L 238 301.5 L 234.5 302 L 234.5 301 Z " /><path fill="rgb(237,144,5)" stroke="rgb(237,144,5)" stroke-width="1" opacity="1" d="M 245.5 301 L 249 301.5 L 245.5 302 L 245.5 301 Z " /><path fill="rgb(237,144,5)" stroke="rgb(237,144,5)" stroke-width="1" opacity="1" d="M 250.5 302 L 253 303.5 L 251.5 303 L 250.5 302 Z " /><path fill="rgb(237,144,5)" stroke="rgb(237,144,5)" stroke-width="1" opacity="1" d="M 220.5 303 L 225.5 305 L 229.5 303 L 229.5 304 L 224.5 306 L 220.5 304 L 220.5 303 Z " /><path fill="rgb(237,144,5)" stroke="rgb(237,144,5)" stroke-width="1" opacity="1" d="M 254.5 304 Q 260.6 306.4 261 314.5 L 260 314.5 L 259 309.5 L 254.5 304 Z " /><path fill="rgb(237,144,5)" stroke="rgb(237,144,5)" stroke-width="1" opacity="1" d="M 311.5 304 L 323 304.5 L 311.5 305 L 311.5 304 Z " /><path fill="rgb(237,144,5)" stroke="rgb(237,144,5)" stroke-width="1" opacity="1" d="M 333.5 304 L 391.5 304 L 392 307 L 330.5 307 L 329 305.5 L 333.5 304 Z " /><path fill="rgb(237,144,5)" stroke="rgb(237,144,5)" stroke-width="1" opacity="1" d="M 404.5 304 L 421.5 304 L 422.5 305 L 424.5 305 L 426.5 304 L 427.5 305 L 465 305 L 464.5 307 L 403 307 L 404.5 304 Z " /><path fill="rgb(237,144,5)" stroke="rgb(237,144,5)" stroke-width="1" opacity="1" d="M 472.5 304 L 480 305.5 L 472 306 L 472.5 304 Z " /><path fill="rgb(237,144,5)" stroke="rgb(237,144,5)" stroke-width="1" opacity="1" d="M 304.5 305 L 310 305.5 L 301.5 307 L 301.5 306 L 304.5 305 Z " /><path fill="rgb(237,144,5)" stroke="rgb(237,144,5)" stroke-width="1" opacity="1" d="M 140.5 306 L 147.5 309 L 166 311.5 L 153.5 316 L 142.5 316 Q 138.6 313.9 139 307.5 L 140.5 306 Z " /><path fill="rgb(237,144,5)" stroke="rgb(237,144,5)" stroke-width="1" opacity="1" d="M 481.5 306 L 485 306.5 L 481.5 307 L 481.5 306 Z " /><path fill="rgb(237,144,5)" stroke="rgb(237,144,5)" stroke-width="1" opacity="1" d="M 299.5 307 L 299 308.5 L 300 310.5 L 298 309.5 L 299.5 307 Z " /><path fill="rgb(237,144,5)" stroke="rgb(237,144,5)" stroke-width="1" opacity="1" d="M 486.5 307 L 489 308.5 L 487.5 308 L 486.5 307 Z " /><path fill="rgb(237,144,5)" stroke="rgb(237,144,5)" stroke-width="1" opacity="1" d="M 96.5 308 L 99 309.5 L 97 316 L 86.5 317 L 81 315.5 L 85.5 315 L 90.5 316 L 97 313.5 L 96.5 309 L 95 309.5 L 96.5 308 Z " /><path fill="rgb(237,144,5)" stroke="rgb(237,144,5)" stroke-width="1" opacity="1" d="M 88.5 309 L 93 309.5 L 88.5 310 L 88.5 309 Z " /><path fill="rgb(237,144,5)" stroke="rgb(237,144,5)" stroke-width="1" opacity="1" d="M 82.5 310 L 86 310.5 L 78 313.5 L 80 314.5 L 78.5 315 L 77 312 L 82.5 310 Z " /><path fill="rgb(237,144,5)" stroke="rgb(237,144,5)" stroke-width="1" opacity="1" d="M 177.5 311 Q 181.5 310.5 182 313.5 L 179.5 312 L 169.5 317 L 169.5 316 L 177.5 311 Z " /><path fill="rgb(237,144,5)" stroke="rgb(237,144,5)" stroke-width="1" opacity="1" d="M 301.5 311 L 304 311.5 L 301.5 312 L 301.5 311 Z " /><path fill="rgb(237,144,5)" stroke="rgb(237,144,5)" stroke-width="1" opacity="1" d="M 484.5 311 L 487 311.5 L 484.5 312 L 484.5 311 Z " /><path fill="rgb(237,144,5)" stroke="rgb(237,144,5)" stroke-width="1" opacity="1" d="M 305.5 312 L 308 312.5 L 305.5 313 L 305.5 312 Z " /><path fill="rgb(237,144,5)" stroke="rgb(237,144,5)" stroke-width="1" opacity="1" d="M 479.5 312 L 482 312.5 L 479.5 313 L 479.5 312 Z " /><path fill="rgb(237,144,5)" stroke="rgb(237,144,5)" stroke-width="1" opacity="1" d="M 310.5 313 L 315 313.5 L 310.5 314 L 310.5 313 Z " /><path fill="rgb(237,144,5)" stroke="rgb(237,144,5)" stroke-width="1" opacity="1" d="M 472.5 313 L 477 313.5 L 472.5 314 L 472.5 313 Z " /><path fill="rgb(237,144,5)" stroke="rgb(237,144,5)" stroke-width="1" opacity="1" d="M 183.5 314 L 194 323.5 L 193.5 325 L 188.5 319 L 183.5 314 Z " /><path fill="rgb(237,144,5)" stroke="rgb(237,144,5)" stroke-width="1" opacity="1" d="M 319.5 314 L 326 314.5 L 319.5 315 L 319.5 314 Z " /><path fill="rgb(237,144,5)" stroke="rgb(237,144,5)" stroke-width="1" opacity="1" d="M 460.5 314 L 468 314.5 L 460.5 315 L 460.5 314 Z " /><path fill="rgb(237,144,5)" stroke="rgb(237,144,5)" stroke-width="1" opacity="1" d="M 330.5 315 L 341 315.5 L 330.5 316 L 330.5 315 Z " /><path fill="rgb(237,144,5)" stroke="rgb(237,144,5)" stroke-width="1" opacity="1" d="M 440.5 315 L 454 315.5 L 440.5 316 L 440.5 315 Z " /><path fill="rgb(237,144,5)" stroke="rgb(237,144,5)" stroke-width="1" opacity="1" d="M 343.5 316 L 438 316.5 L 343.5 317 L 343.5 316 Z " /><path fill="rgb(237,144,5)" stroke="rgb(237,144,5)" stroke-width="1" opacity="1" d="M 99.5 317 L 100 320.5 L 99 320.5 L 99.5 317 Z " /><path fill="rgb(237,144,5)" stroke="rgb(237,144,5)" stroke-width="1" opacity="1" d="M 163.5 318 L 166 318.5 L 163.5 319 L 163.5 318 Z " /><path fill="rgb(237,144,5)" stroke="rgb(237,144,5)" stroke-width="1" opacity="1" d="M 260.5 318 L 261 321.5 L 259.5 324 L 259 322.5 L 260.5 318 Z " /><path fill="rgb(237,144,5)" stroke="rgb(237,144,5)" stroke-width="1" opacity="1" d="M 493.5 318 L 494 320.5 L 488.5 337 L 488 334.5 L 493.5 318 Z " /><path fill="rgb(237,144,5)" stroke="rgb(237,144,5)" stroke-width="1" opacity="1" d="M 154.5 320 L 159 320.5 L 154.5 321 L 154.5 320 Z " /><path fill="rgb(237,144,5)" stroke="rgb(237,144,5)" stroke-width="1" opacity="1" d="M 143.5 321 L 150 321.5 L 140.5 323 L 140.5 322 L 143.5 321 Z " /><path fill="rgb(237,144,5)" stroke="rgb(237,144,5)" stroke-width="1" opacity="1" d="M 77.5 323 L 89 323.5 L 77.5 324 L 77.5 323 Z " /><path fill="rgb(237,144,5)" stroke="rgb(237,144,5)" stroke-width="1" opacity="1" d="M 93.5 323 Q 96.5 322.1 95 326.5 L 94 330 L 92 329.5 L 94 324.5 L 93.5 323 Z " /><path fill="rgb(237,144,5)" stroke="rgb(237,144,5)" stroke-width="1" opacity="1" d="M 134.5 323 L 133 325.5 L 123.5 336 L 122 336.5 L 136 337.5 L 118.5 339 L 119.5 337 Q 127.7 333.7 132 326.5 L 134.5 323 Z " /><path fill="rgb(237,144,5)" stroke="rgb(237,144,5)" stroke-width="1" opacity="1" d="M 71.5 324 L 76 324.5 L 62 327 Q 60.8 330 64.5 329 L 64.5 330 L 61 328.5 L 62.5 326 L 71.5 324 Z " /><path fill="rgb(237,144,5)" stroke="rgb(237,144,5)" stroke-width="1" opacity="1" d="M 258.5 325 L 258 326.5 Q 255 334 248.5 338 L 247 338.5 L 268 340.5 L 260.5 341 L 259.5 340 L 245 339.5 L 255 330.5 L 258.5 325 Z " /><path fill="rgb(237,144,5)" stroke="rgb(237,144,5)" stroke-width="1" opacity="1" d="M 195.5 328 L 200 337 L 138 336.5 L 199 335.5 L 195 329.5 L 195.5 328 Z " /><path fill="rgb(237,144,5)" stroke="rgb(237,144,5)" stroke-width="1" opacity="1" d="M 68.5 330 L 74 330.5 L 68.5 331 L 68.5 330 Z " /><path fill="rgb(237,144,5)" stroke="rgb(237,144,5)" stroke-width="1" opacity="1" d="M 83.5 330 L 91 330.5 L 83.5 331 L 83.5 330 Z " /><path fill="rgb(237,144,5)" stroke="rgb(237,144,5)" stroke-width="1" opacity="1" d="M 99.5 334 L 102 337.5 L 90.5 338 L 90.5 337 L 100 336.5 L 99.5 334 Z " /><path fill="rgb(237,144,5)" stroke="rgb(237,144,5)" stroke-width="1" opacity="1" d="M 78.5 338 L 89 338.5 L 78.5 339 L 78.5 338 Z " /><path fill="rgb(237,144,5)" stroke="rgb(237,144,5)" stroke-width="1" opacity="1" d="M 487.5 338 L 488 339.5 L 483.5 350 L 483 348.5 L 487.5 338 Z " /><path fill="rgb(237,144,5)" stroke="rgb(237,144,5)" stroke-width="1" opacity="1" d="M 67.5 339 L 76 339.5 L 57 342 Q 55.9 344.7 58.5 344 L 63 345.5 L 59.5 346 L 55 343.5 L 57.5 341 L 67.5 339 Z " /><path fill="rgb(237,144,5)" stroke="rgb(237,144,5)" stroke-width="1" opacity="1" d="M 269.5 341 L 275 341.5 L 269.5 342 L 269.5 341 Z " /><path fill="rgb(237,144,5)" stroke="rgb(237,144,5)" stroke-width="1" opacity="1" d="M 276.5 342 Q 281.3 340.3 280 344.5 Q 279 347 274.5 346 L 274.5 345 Q 280.4 346.7 279 343 Q 275.7 343.8 276.5 342 Z " /><path fill="rgb(237,144,5)" stroke="rgb(237,144,5)" stroke-width="1" opacity="1" d="M 27.5 344 L 29 347.5 L 28 347.5 L 27.5 344 Z " /><path fill="rgb(237,144,5)" stroke="rgb(237,144,5)" stroke-width="1" opacity="1" d="M 65.5 346 L 72 346.5 L 65.5 347 L 65.5 346 Z " /><path fill="rgb(237,144,5)" stroke="rgb(237,144,5)" stroke-width="1" opacity="1" d="M 266.5 346 L 272 346.5 L 266.5 347 L 266.5 346 Z " /><path fill="rgb(237,144,5)" stroke="rgb(237,144,5)" stroke-width="1" opacity="1" d="M 75.5 347 L 85 347.5 L 75.5 348 L 75.5 347 Z " /><path fill="rgb(237,144,5)" stroke="rgb(237,144,5)" stroke-width="1" opacity="1" d="M 256.5 347 L 264 347.5 L 256.5 348 L 256.5 347 Z " /><path fill="rgb(237,144,5)" stroke="rgb(237,144,5)" stroke-width="1" opacity="1" d="M 88.5 348 L 108 348.5 L 88.5 349 L 88.5 348 Z " /><path fill="rgb(237,144,5)" stroke="rgb(237,144,5)" stroke-width="1" opacity="1" d="M 235.5 348 L 253 348.5 L 235.5 349 L 235.5 348 Z " /><path fill="rgb(237,144,5)" stroke="rgb(237,144,5)" stroke-width="1" opacity="1" d="M 29.5 349 Q 50.8 400.2 88.5 435 L 91.5 437 Q 108.8 453.7 130 466.5 L 128.5 466 Q 97.2 447.8 74 421.5 Q 57.9 403.6 45 382.5 L 32 357.5 L 29.5 349 Z " /><path fill="rgb(237,144,5)" stroke="rgb(237,144,5)" stroke-width="1" opacity="1" d="M 119.5 349 L 149 349.5 L 119.5 350 L 119.5 349 Z " /><path fill="rgb(237,144,5)" stroke="rgb(237,144,5)" stroke-width="1" opacity="1" d="M 193.5 349 L 224 349.5 L 193.5 350 L 193.5 349 Z " /><path fill="rgb(237,144,5)" stroke="rgb(237,144,5)" stroke-width="1" opacity="1" d="M 482.5 351 L 483 352.5 Q 460.4 403.9 421.5 439 Q 391.7 466.2 351.5 483 L 351.5 482 Q 375.2 472.7 394.5 459 L 427 433 L 428.5 430 Q 430.8 430.8 430 428.5 Q 463.4 396.9 482.5 351 Z " /><path fill="rgb(237,144,5)" stroke="rgb(237,144,5)" stroke-width="1" opacity="1" d="M 131.5 467 Q 147.7 477.3 167 484.5 L 165.5 485 L 139.5 473 L 132.5 469 L 131.5 467 Z " /><path fill="rgb(237,144,5)" stroke="rgb(237,144,5)" stroke-width="1" opacity="1" d="M 348.5 483 L 350 483.5 L 338.5 488 L 338.5 487 L 348.5 483 Z " /><path fill="rgb(237,144,5)" stroke="rgb(237,144,5)" stroke-width="1" opacity="1" d="M 168.5 485 L 175 487.5 L 173.5 488 L 168.5 486 L 168.5 485 Z " /><path fill="rgb(237,144,5)" stroke="rgb(237,144,5)" stroke-width="1" opacity="1" d="M 176.5 488 L 204.5 496 L 219 498.5 L 215.5 499 L 185.5 492 L 176.5 489 L 176.5 488 Z " /><path fill="rgb(237,144,5)" stroke="rgb(237,144,5)" stroke-width="1" opacity="1" d="M 334.5 488 L 337 488.5 Q 318.2 496.2 294.5 499 L 294.5 498 L 316.5 494 L 334.5 488 Z " /><path fill="rgb(237,144,5)" stroke="rgb(237,144,5)" stroke-width="1" opacity="1" d="M 221.5 499 L 238 500.5 L 229.5 501 Q 227.7 498.3 221.5 500 L 221.5 499 Z " /><path fill="rgb(237,144,5)" stroke="rgb(237,144,5)" stroke-width="1" opacity="1" d="M 283.5 499 L 292 499.5 L 283.5 501 L 274.5 501 L 274.5 500 L 282.5 500 L 283.5 499 Z " /><path fill="rgb(237,144,5)" stroke="rgb(237,144,5)" stroke-width="1" opacity="1" d="M 240.5 501 L 256 501.5 L 240.5 502 L 240.5 501 Z " /><path fill="rgb(237,144,5)" stroke="rgb(237,144,5)" stroke-width="1" opacity="1" d="M 257.5 501 L 272 501.5 L 257.5 502 L 257.5 501 Z " /><path fill="rgb(255,152,0)" stroke="rgb(255,152,0)" stroke-width="1" opacity="1" d="M 254.5 11 L 287.5 13 L 299.5 16 L 304.5 16 L 348.5 29 Q 399.9 50.6 435 88.5 L 437 91.5 Q 457.3 112.7 472 139.5 L 488 175.5 L 496 204.5 L 496 209 L 487 211 Q 482.4 194.3 470.5 184 L 467.5 182 L 461.5 177 L 447.5 171 L 437.5 171 L 436 173.5 L 454 184 L 454 186 Q 456.7 184.9 456 187.5 Q 467 196.8 470 213 Q 467 215 459.5 214 L 458 215.5 L 457 217.5 L 481.5 245 L 484.5 246 L 487 245 L 491 233.5 L 493 231.5 L 493 228.5 L 498.5 219 L 500 237.5 L 501 238.5 L 501 274.5 L 499 284.5 L 499 293.5 L 497 298.5 L 496 308.5 L 494 312.5 L 494 317.5 L 492 320.5 L 488 337.5 L 478 361.5 L 459 394.5 L 430 430 L 427 431.5 Q 427.8 433.8 425.5 433 L 394.5 459 Q 374.2 472.7 350.5 483 L 327.5 491 L 303.5 497 Q 296.8 496.3 293.5 499 L 283.5 499 L 273.5 501 L 257.5 501 L 256.5 502 L 255.5 501 L 238.5 501 L 228.5 499 L 219.5 499 L 214.5 497 L 209.5 497 L 200.5 494 L 196.5 494 L 167.5 485 L 130.5 467 L 90 437 Q 91.1 434.3 88.5 435 Q 50.6 399.9 29 348.5 L 16 304.5 L 16 299.5 L 13 287.5 L 11 253.5 L 12 252.5 L 13 225.5 L 16 213.5 L 16 207.5 L 18 203.5 L 18 198.5 L 21 191.5 L 21 187.5 L 32 157.5 Q 53.9 109.4 90.5 76 Q 123.5 45 169.5 27 L 207.5 16 L 213.5 16 L 225.5 13 L 253.5 12 L 254.5 11 Z M 179 113 L 174 115 L 169 120 L 169 122 Q 165 126 157 126 L 142 134 L 129 148 L 123 162 Q 125 167 122 169 L 122 180 L 125 194 L 113 200 L 88 201 L 80 203 L 71 203 L 63 207 L 65 208 L 77 208 L 78 209 L 102 208 L 101 210 Q 100 217 102 221 L 64 222 L 63 223 L 52 223 L 42 225 L 40 228 L 42 229 L 52 229 L 53 230 L 76 230 L 78 230 L 79 229 L 104 229 L 105 238 L 56 240 L 55 241 L 38 242 L 37 243 L 29 243 L 18 246 Q 13 245 15 249 L 28 251 L 39 251 L 40 252 L 86 253 L 83 256 L 61 256 L 60 257 L 42 258 L 40 261 L 49 263 L 77 265 L 72 274 Q 71 283 73 289 Q 78 297 90 299 L 99 298 L 108 291 L 113 284 Q 114 275 110 271 L 112 267 L 116 285 L 120 293 L 119 292 L 111 293 L 104 303 L 101 315 L 99 318 Q 101 323 98 325 Q 97 333 100 337 L 91 337 L 90 338 L 79 338 L 78 339 L 68 339 L 58 341 L 55 344 L 60 346 Q 64 345 66 347 L 88 348 L 89 349 L 119 349 L 120 350 L 224 350 L 225 349 L 253 349 L 254 348 L 264 348 L 265 347 L 279 346 L 280 342 L 268 340 L 261 340 L 260 339 L 247 339 L 249 338 Q 257 332 261 322 Q 263 313 260 310 Q 256 304 249 301 Q 233 299 226 305 L 216 301 L 218 299 L 227 298 L 245 293 L 251 290 L 255 290 L 262 293 L 272 293 L 285 289 L 292 285 L 298 279 L 298 277 L 300 275 L 308 274 L 312 272 L 314 270 L 315 266 L 315 259 L 317 253 L 317 243 L 319 237 L 319 232 L 314 227 L 309 227 L 306 225 Q 294 225 287 221 L 281 221 L 277 219 L 269 219 L 268 204 L 267 203 L 267 194 L 266 193 L 275 191 L 282 188 L 288 180 Q 288 173 284 170 L 267 160 Q 262 161 261 158 L 254 158 Q 251 142 242 133 L 240 130 L 227 121 L 216 118 L 193 118 L 192 117 Q 188 112 179 113 Z M 94 125 L 90 134 L 84 138 L 82 141 L 86 142 Q 92 146 94 154 L 97 147 L 104 141 Q 106 142 105 140 L 103 138 L 97 133 L 94 125 Z M 342 131 Q 338 132 339 136 L 331 143 L 337 146 L 340 152 Q 339 155 343 153 L 344 149 L 350 144 L 351 141 L 346 139 L 342 131 Z M 393 131 L 379 144 Q 380 146 377 145 L 377 147 L 362 163 L 364 166 L 377 166 L 378 165 L 379 167 L 379 191 L 380 192 L 381 193 L 405 193 L 407 189 L 406 186 Q 409 184 407 179 L 407 177 L 406 174 L 406 166 L 423 166 L 423 162 L 413 151 L 410 149 L 401 138 Q 399 132 393 131 Z M 323 153 L 323 156 L 317 162 L 323 167 Q 322 170 325 169 L 326 166 L 332 162 L 327 159 L 325 155 Q 326 152 323 153 Z M 110 156 L 108 159 L 104 162 Q 103 164 106 163 L 110 168 L 112 168 Q 110 164 114 165 L 116 162 L 113 160 L 112 158 Q 113 155 110 156 Z M 350 170 L 337 173 L 319 184 L 306 200 L 302 209 L 302 213 L 287 211 L 286 215 L 291 218 Q 297 218 302 221 L 307 221 L 320 225 L 321 229 L 325 229 L 332 222 L 331 217 Q 327 215 319 216 Q 318 209 321 205 L 332 187 L 343 178 L 351 175 L 352 172 L 350 170 Z M 78 174 L 75 179 L 80 182 L 84 179 L 83 176 Q 82 173 78 174 Z M 357 201 L 355 202 L 352 206 L 352 256 L 327 256 L 325 257 L 323 259 L 323 304 L 312 304 L 300 307 L 298 310 L 302 312 L 311 314 L 343 316 L 344 317 L 438 317 L 439 316 L 454 316 L 455 315 L 477 314 L 488 311 Q 490 312 489 309 L 485 306 L 474 305 L 472 304 L 472 260 L 471 257 L 469 256 L 439 256 L 439 208 L 438 205 L 434 201 L 357 201 Z M 338 232 L 335 236 L 336 238 Q 337 241 341 240 Q 344 239 343 234 Q 342 231 338 232 Z M 488 267 L 486 271 L 481 274 Q 479 278 483 277 L 486 282 L 489 283 L 490 280 L 494 277 L 495 274 L 492 273 L 489 270 Q 490 266 488 267 Z M 52 273 L 49 278 L 46 280 L 44 283 L 47 284 L 49 289 L 53 291 L 55 285 L 59 283 Q 61 284 60 282 L 57 280 L 52 273 Z M 64 299 L 61 302 L 62 307 L 67 308 L 70 304 L 69 301 Q 68 298 64 299 Z M 97 308 L 96 309 L 83 310 L 79 312 Q 76 311 77 314 L 87 317 L 97 316 L 99 310 L 97 308 Z M 78 323 L 63 326 L 61 329 L 63 330 Q 67 329 69 331 L 91 331 L 94 330 L 95 327 L 95 323 L 78 323 Z " /><path fill="rgb(255,152,0)" stroke="rgb(255,152,0)" stroke-width="1" opacity="1" d="M 175.5 237 Q 183 236 186 238 L 183.5 242 L 178.5 243 L 174 239.5 L 175.5 237 Z " /><path fill="rgb(255,152,0)" stroke="rgb(255,152,0)" stroke-width="1" opacity="1" d="M 210.5 240 L 213 241.5 L 211.5 245 L 210.5 240 Z " /><path fill="rgb(255,152,0)" stroke="rgb(255,152,0)" stroke-width="1" opacity="1" d="M 177.5 312 L 182.5 314 L 193 323.5 L 199 335.5 L 122.5 337 L 122.5 336 L 133 326.5 L 135.5 323 L 158.5 321 L 170.5 317 L 177.5 312 Z " /><path fill="rgb(88,115,69)" stroke="rgb(88,115,69)" stroke-width="1" opacity="1" d="M 241.5 10 L 272 10.5 L 241.5 11 L 241.5 10 Z " /><path fill="rgb(88,115,69)" stroke="rgb(88,115,69)" stroke-width="1" opacity="1" d="M 227.5 11 L 238 11.5 L 208.5 15 L 182.5 22 L 182.5 21 L 199.5 16 L 227.5 11 Z " /><path fill="rgb(88,115,69)" stroke="rgb(88,115,69)" stroke-width="1" opacity="1" d="M 275.5 11 L 284.5 11 L 285.5 12 L 304.5 14 L 328.5 20 L 334 22.5 L 331.5 23 L 324.5 20 L 304.5 15 L 285.5 13 L 284.5 12 L 275.5 12 L 275.5 11 Z " /><path fill="rgb(88,115,69)" stroke="rgb(88,115,69)" stroke-width="1" opacity="1" d="M 178.5 22 L 181 22.5 L 176.5 24 L 176.5 23 L 178.5 22 Z " /><path fill="rgb(88,115,69)" stroke="rgb(88,115,69)" stroke-width="1" opacity="1" d="M 335.5 23 L 345 26.5 L 343.5 27 L 335.5 24 L 335.5 23 Z " /><path fill="rgb(88,115,69)" stroke="rgb(88,115,69)" stroke-width="1" opacity="1" d="M 170.5 25 L 172 25.5 L 168.5 27 L 168.5 26 L 170.5 25 Z " /><path fill="rgb(88,115,69)" stroke="rgb(88,115,69)" stroke-width="1" opacity="1" d="M 165.5 27 L 167 27.5 Q 109.3 50.3 72 93.5 L 59.5 109 L 62 105.5 L 82.5 81 Q 116.6 46.6 165.5 27 Z " /><path fill="rgb(88,115,69)" stroke="rgb(88,115,69)" stroke-width="1" opacity="1" d="M 346.5 27 Q 404.7 49.8 442 93.5 Q 457.7 110.3 469 131.5 L 467 130.5 Q 448.6 97.9 421.5 74 L 390.5 50 Q 370.7 36.8 346.5 28 L 346.5 27 Z " /><path fill="rgb(88,115,69)" stroke="rgb(88,115,69)" stroke-width="1" opacity="1" d="M 58.5 110 L 57 112.5 Q 39 136.5 27.5 167 L 27 165.5 Q 39 134 58.5 110 Z " /><path fill="rgb(88,115,69)" stroke="rgb(88,115,69)" stroke-width="1" opacity="1" d="M 177.5 114 Q 187.1 112.7 191 116 L 192.5 119 Q 230.6 114.9 244 135.5 Q 250.9 144.8 253 158 L 267.5 161 L 283 169 L 287 175.5 L 287 180.5 L 281.5 187 L 274.5 190 L 266 191 L 268 219 L 313.5 228 L 318 231.5 L 314 267.5 L 311.5 271 Q 307.2 274.2 299.5 274 L 298 275.5 Q 296.6 281.6 291.5 284 Q 280.6 292.6 260.5 292 L 254.5 289 L 251.5 289 L 238.5 294 L 214 299.5 L 217.5 303 L 225.5 306 Q 232 300.5 244.5 301 L 253.5 304 L 259 309.5 L 261 317.5 L 259 324.5 L 248.5 337 L 245 339.5 L 259.5 340 L 260.5 341 L 268.5 341 L 279 343 Q 280.4 346.7 274.5 345 L 265.5 347 L 235.5 348 L 234.5 349 L 149.5 350 L 148.5 349 L 85.5 348 L 84.5 347 L 63.5 346 L 57 344 Q 55.7 340.7 60.5 342 L 76.5 339 L 102 337.5 Q 97.7 334.3 98 326.5 L 104 304.5 L 110.5 294 L 119.5 293 L 121 293.5 L 117 285.5 L 111.5 266 Q 108.5 266.5 109 270.5 Q 113.3 274.7 112 284.5 L 107.5 290 L 96.5 298 L 88.5 298 Q 78.9 295.6 74 288.5 Q 71.1 284.9 72 277.5 L 78 263 L 47.5 262 L 41 259.5 Q 47.7 256.7 58.5 258 L 59.5 257 L 82.5 257 L 87 252.5 L 86.5 251 L 37.5 251 L 36.5 250 L 18.5 249 L 16 247.5 L 28.5 244 L 53.5 242 L 54.5 241 L 106 239 L 104 228 L 82.5 228 L 81.5 229 L 49.5 229 L 41 227.5 L 42.5 226 L 51.5 224 L 73.5 223 L 74.5 222 L 101.5 222 L 103 220.5 L 101 211.5 L 103 207.5 L 99.5 207 L 98.5 208 L 71.5 208 L 64 206.5 L 65.5 205 L 76.5 204 L 77.5 203 L 112.5 201 L 123.5 195 L 126 195 L 123 183.5 L 123 174.5 L 122 173.5 L 126 154.5 Q 131.2 143.2 140.5 136 L 153.5 128 L 167.5 124 L 170 121.5 L 170 119.5 L 174.5 115 L 177.5 114 Z M 193 123 Q 191 126 185 124 L 172 128 L 171 130 L 187 126 L 210 126 L 220 128 L 229 132 L 237 142 L 244 158 L 248 158 L 244 146 L 237 135 L 231 129 L 218 124 Q 213 125 212 123 L 193 123 Z M 164 130 L 159 133 L 161 133 L 162 134 L 165 131 L 164 130 Z M 209 130 Q 207 132 203 131 L 195 135 L 190 142 L 192 151 L 194 154 Q 198 159 206 160 Q 219 162 224 157 L 229 147 Q 230 140 227 138 L 221 132 L 209 130 Z M 232 162 L 209 167 L 209 168 L 224 167 L 225 166 L 241 166 L 242 165 L 264 167 L 276 172 L 277 172 L 273 168 L 258 163 L 232 162 Z M 205 168 L 205 169 L 207 169 L 205 168 Z M 224 183 L 205 194 L 197 197 L 186 198 L 185 199 L 177 199 L 176 198 Q 176 203 174 204 Q 171 203 172 198 L 161 196 L 155 193 Q 148 191 146 195 L 154 256 L 157 266 L 157 271 L 159 275 L 159 279 L 164 289 L 181 286 L 190 286 L 191 285 L 228 284 L 229 283 L 242 283 L 250 281 L 253 282 Q 242 288 226 288 L 226 289 Q 228 288 227 291 L 232 291 L 235 289 L 253 284 L 262 280 L 267 276 L 267 265 L 266 264 L 266 254 L 265 253 L 265 241 L 264 240 L 264 229 L 263 228 L 263 216 L 261 205 L 260 185 L 259 183 L 224 183 Z M 143 194 L 131 200 L 131 206 L 133 212 L 134 222 L 122 226 L 119 222 L 117 209 L 116 207 L 108 212 L 109 222 L 113 237 L 125 237 L 138 241 Q 142 244 144 251 Q 144 262 138 268 Q 133 275 124 277 L 122 271 L 122 264 L 118 264 L 124 289 L 131 293 L 147 289 L 157 288 L 148 245 L 143 194 Z M 128 200 L 119 206 L 122 220 L 131 218 L 128 200 Z M 269 224 L 270 233 L 270 242 L 270 244 L 271 246 L 271 260 L 273 261 Q 278 263 280 260 Q 289 259 294 262 Q 298 265 300 271 L 307 269 L 309 266 L 312 232 L 295 229 L 294 242 Q 286 242 281 239 L 283 226 L 275 224 L 269 224 Z M 285 227 L 284 237 L 292 239 L 294 228 Q 289 226 290 230 Q 287 231 288 227 L 285 227 Z M 115 244 L 106 246 L 99 250 L 92 258 Q 100 259 105 265 L 112 260 Q 119 258 131 259 L 136 257 L 139 253 L 138 250 L 135 246 L 131 245 L 115 244 Z M 89 260 Q 80 267 77 280 L 78 286 L 89 293 Q 97 295 99 290 L 97 282 Q 96 279 99 280 L 101 286 Q 100 288 104 287 L 108 282 Q 107 273 102 269 Q 97 262 89 260 Z M 281 264 L 281 267 L 287 274 Q 288 276 286 275 L 278 266 Q 273 265 272 268 L 273 271 L 272 279 Q 269 285 261 286 L 261 287 L 277 286 Q 286 283 292 278 Q 295 275 294 269 Q 291 263 281 264 Z M 189 290 L 181 292 L 167 293 L 165 295 L 196 318 L 198 318 L 211 309 Q 213 308 213 305 Q 205 296 195 290 L 189 290 Z M 224 291 L 224 292 L 227 292 L 224 291 Z M 115 297 L 109 305 L 103 325 L 104 334 L 108 335 L 110 321 L 120 298 L 115 297 Z M 130 298 L 125 308 L 125 313 L 131 317 L 137 318 L 134 311 L 135 303 L 137 300 Q 135 297 130 298 Z M 141 306 L 139 308 Q 139 314 143 316 L 154 316 L 166 312 L 148 309 L 141 306 Z M 248 307 L 238 313 L 211 334 L 207 339 L 211 341 Q 227 331 241 318 L 253 311 L 248 307 Z M 217 308 Q 213 309 214 314 Q 215 316 219 315 L 221 310 Q 220 307 217 308 Z M 178 311 L 167 318 L 154 321 L 144 321 L 140 323 L 137 322 L 135 323 L 132 327 Q 128 334 120 337 L 119 339 Q 125 336 136 338 L 137 337 L 200 337 L 194 324 Q 188 315 178 311 Z M 251 314 L 247 316 L 245 319 L 252 316 L 251 314 Z M 243 319 L 241 322 L 244 320 L 243 319 Z M 117 322 L 117 325 L 120 326 L 121 324 L 117 322 Z M 239 322 L 234 326 L 230 331 L 240 323 L 239 322 Z M 227 332 L 225 335 L 228 333 L 227 332 Z M 221 336 L 221 338 L 223 337 L 221 336 Z " /><path fill="rgb(88,115,69)" stroke="rgb(88,115,69)" stroke-width="1" opacity="1" d="M 341.5 132 L 346.5 140 L 350 142.5 L 344 147.5 L 341.5 152 L 335.5 144 L 332 142.5 L 340 135.5 L 341.5 132 Z " /><path fill="rgb(88,115,69)" stroke="rgb(88,115,69)" stroke-width="1" opacity="1" d="M 392.5 132 L 399 136.5 L 423 163.5 L 421.5 165 L 406 165 L 406 190.5 L 404.5 192 L 381.5 192 L 380 190.5 L 380 165 L 363.5 165 L 363 162.5 L 365 159 L 368 157.5 L 390.5 133 L 392.5 132 Z " /><path fill="rgb(88,115,69)" stroke="rgb(88,115,69)" stroke-width="1" opacity="1" d="M 469.5 133 Q 479.4 146.6 485 164.5 L 484 164.5 L 480 153.5 L 469.5 133 Z " /><path fill="rgb(88,115,69)" stroke="rgb(88,115,69)" stroke-width="1" opacity="1" d="M 218.5 138 L 222 139.5 L 213.5 153 Q 205.1 153.9 202 149.5 L 203.5 146 L 210.5 148 L 218.5 138 Z " /><path fill="rgb(88,115,69)" stroke="rgb(88,115,69)" stroke-width="1" opacity="1" d="M 109 157 Q 111.7 155.9 111 158.5 L 115 161 Q 116.1 163.7 113.5 163 L 111 167 Q 108.3 168.1 109 165.5 L 105.5 161 L 109 158.5 L 109 157 Z " /><path fill="rgb(88,115,69)" stroke="rgb(88,115,69)" stroke-width="1" opacity="1" d="M 485.5 166 L 487 169.5 L 486 169.5 L 485.5 166 Z " /><path fill="rgb(88,115,69)" stroke="rgb(88,115,69)" stroke-width="1" opacity="1" d="M 26.5 168 L 27 169.5 L 25.5 172 L 25 170.5 L 26.5 168 Z " /><path fill="rgb(88,115,69)" stroke="rgb(88,115,69)" stroke-width="1" opacity="1" d="M 345.5 171 Q 352.5 169.5 352 172.5 Q 339.4 177.4 331 186.5 Q 319.7 197.6 318 217 L 328.5 217 L 331 219.5 L 331 221.5 L 324.5 228 L 322.5 229 L 319.5 224 L 289.5 217 L 287 214.5 L 288.5 212 L 299.5 213 L 302 214 Q 306 194.9 319.5 184 Q 329.8 174.8 345.5 171 Z " /><path fill="rgb(88,115,69)" stroke="rgb(88,115,69)" stroke-width="1" opacity="1" d="M 438.5 171 Q 463 174 475 189.5 L 480 196.5 L 487.5 212 L 497 210 L 497 204.5 L 493 189.5 L 494 189.5 L 500 213.5 L 500 215.5 L 501 228.5 L 500 228.5 Q 500.9 221.1 498.5 217 L 489 238.5 L 484.5 245 L 482.5 245 L 478 240.5 L 459 219.5 L 458 216.5 L 459.5 215 L 471 214 Q 466.8 194.4 453.5 183 Q 446.5 176.8 437 174 L 438.5 171 Z " /><path fill="rgb(88,115,69)" stroke="rgb(88,115,69)" stroke-width="1" opacity="1" d="M 487.5 171 L 493 187.5 L 492 187.5 L 487.5 171 Z " /><path fill="rgb(88,115,69)" stroke="rgb(88,115,69)" stroke-width="1" opacity="1" d="M 24.5 173 L 25 174.5 L 22.5 181 L 22 178.5 L 24.5 173 Z " /><path fill="rgb(88,115,69)" stroke="rgb(88,115,69)" stroke-width="1" opacity="1" d="M 79.5 174 L 82 175 L 83 177.5 L 80.5 181 Q 76.5 181.5 76 178.5 L 77 175 L 79.5 174 Z " /><path fill="rgb(88,115,69)" stroke="rgb(88,115,69)" stroke-width="1" opacity="1" d="M 21.5 182 L 22 183.5 L 17 199.5 L 13.5 219 L 13 214.5 L 18 191.5 L 21.5 182 Z " /><path fill="rgb(88,115,69)" stroke="rgb(88,115,69)" stroke-width="1" opacity="1" d="M 356.5 202 L 433.5 202 L 437 204.5 L 438 206.5 L 438 255.5 L 439.5 257 L 468.5 257 L 471 259.5 L 472 261.5 L 472 306 L 485.5 307 L 489 309.5 L 487.5 311 L 471.5 314 L 440.5 315 L 439.5 316 L 341.5 316 L 340.5 315 L 326.5 315 L 325.5 314 L 308.5 313 L 299 309.5 L 300.5 307 L 310.5 305 L 323 305 L 323 260.5 L 326.5 257 L 329.5 256 L 353 256 L 353 205.5 L 354 203 L 356.5 202 Z M 359 207 L 359 252 L 432 252 L 432 207 L 409 207 L 407 209 L 408 213 L 408 227 L 407 228 L 381 228 L 381 207 L 359 207 Z M 387 207 L 387 222 L 401 222 L 401 207 L 387 207 Z M 329 262 L 329 306 L 331 307 L 392 307 L 392 268 L 393 264 L 392 262 L 374 262 L 373 266 L 374 268 L 374 281 L 372 283 L 350 283 L 348 282 L 348 262 L 329 262 Z M 356 262 L 354 264 L 354 276 L 356 277 L 367 277 L 368 276 L 368 264 L 367 262 L 356 262 Z M 403 262 L 403 307 L 465 307 L 466 305 L 466 263 L 447 263 L 447 283 L 422 283 L 422 264 L 421 262 L 403 262 Z M 428 263 L 428 277 L 441 277 L 441 263 L 428 263 Z " /><path fill="rgb(88,115,69)" stroke="rgb(88,115,69)" stroke-width="1" opacity="1" d="M 234.5 207 Q 240.4 207.6 243 211.5 Q 246 215.5 245 223.5 L 240.5 231 L 236.5 232 L 230 227.5 Q 226.3 223.2 228 213.5 L 232.5 208 L 234.5 207 Z M 236 211 Q 233 212 234 216 L 238 218 Q 240 217 239 213 L 236 211 Z " /><path fill="rgb(88,115,69)" stroke="rgb(88,115,69)" stroke-width="1" opacity="1" d="M 183.5 211 Q 192.1 209.9 194 215.5 L 196 218.5 L 196 229.5 L 192.5 234 L 184.5 235 L 180 231.5 Q 176.7 226.8 178 217.5 L 183.5 211 Z M 188 215 Q 185 216 186 220 L 190 222 Q 193 221 192 218 Q 191 215 188 215 Z " /><path fill="rgb(88,115,69)" stroke="rgb(88,115,69)" stroke-width="1" opacity="1" d="M 12.5 220 L 13 226.5 L 12 227.5 L 11.5 237 L 11 227.5 L 12.5 220 Z " /><path fill="rgb(88,115,69)" stroke="rgb(88,115,69)" stroke-width="1" opacity="1" d="M 223.5 229 L 226 230.5 Q 227.5 243.5 220.5 248 Q 217.6 251.6 209.5 250 L 203 244.5 Q 198.8 239.4 200 230 L 206.5 231 L 216.5 231 L 223.5 229 Z M 207 237 L 205 239 L 206 243 Q 208 248 217 247 L 219 244 Q 215 238 207 237 Z " /><path fill="rgb(88,115,69)" stroke="rgb(88,115,69)" stroke-width="1" opacity="1" d="M 501.5 230 L 502 239.5 L 501 239.5 L 501.5 230 Z " /><path fill="rgb(88,115,69)" stroke="rgb(88,115,69)" stroke-width="1" opacity="1" d="M 337 233 L 342 233 L 342 237.5 L 338.5 239 L 336 235.5 L 337 233 Z " /><path fill="rgb(88,115,69)" stroke="rgb(88,115,69)" stroke-width="1" opacity="1" d="M 10.5 240 L 11 271.5 L 10 271.5 L 10.5 240 Z " /><path fill="rgb(88,115,69)" stroke="rgb(88,115,69)" stroke-width="1" opacity="1" d="M 502.5 241 L 503 271.5 L 502 271.5 L 502.5 241 Z " /><path fill="rgb(88,115,69)" stroke="rgb(88,115,69)" stroke-width="1" opacity="1" d="M 247.5 258 Q 251.3 262.5 250 271 L 247 269.5 L 246 259.5 L 247.5 258 Z " /><path fill="rgb(88,115,69)" stroke="rgb(88,115,69)" stroke-width="1" opacity="1" d="M 254.5 258 Q 256.8 257.3 256 259.5 L 257 260.5 L 257 270 L 254 268.5 L 254 260.5 L 253 259.5 L 254.5 258 Z " /><path fill="rgb(88,115,69)" stroke="rgb(88,115,69)" stroke-width="1" opacity="1" d="M 239 259 L 242 260.5 L 243 272 Q 238.5 273.8 240 268.5 L 239 267.5 L 239 259 Z " /><path fill="rgb(88,115,69)" stroke="rgb(88,115,69)" stroke-width="1" opacity="1" d="M 232.5 260 L 235 261.5 L 235 270.5 L 236 271.5 Q 234.5 274.5 233 271.5 L 231 261.5 L 232.5 260 Z " /><path fill="rgb(88,115,69)" stroke="rgb(88,115,69)" stroke-width="1" opacity="1" d="M 487 269 Q 490 267.8 489 271.5 L 494 275.5 L 489 279.5 L 487.5 282 L 484.5 277 L 482 275.5 L 487 269 Z " /><path fill="rgb(88,115,69)" stroke="rgb(88,115,69)" stroke-width="1" opacity="1" d="M 501.5 273 L 502 281.5 L 501 281.5 L 501.5 273 Z " /><path fill="rgb(88,115,69)" stroke="rgb(88,115,69)" stroke-width="1" opacity="1" d="M 51.5 275 L 56.5 281 Q 59.1 280.3 58 283 L 53 286.5 L 51.5 290 L 46.5 283 Q 43.9 283.7 45 281 L 50 277.5 L 51.5 275 Z " /><path fill="rgb(88,115,69)" stroke="rgb(88,115,69)" stroke-width="1" opacity="1" d="M 11.5 276 L 15 304.5 L 22 330.5 L 21 330.5 L 14 304.5 L 12 286.5 L 11 285.5 L 11.5 276 Z " /><path fill="rgb(88,115,69)" stroke="rgb(88,115,69)" stroke-width="1" opacity="1" d="M 500.5 284 L 501 291.5 L 495 320.5 L 490.5 333 L 490 331.5 L 497 308.5 L 500.5 284 Z " /><path fill="rgb(88,115,69)" stroke="rgb(88,115,69)" stroke-width="1" opacity="1" d="M 63.5 300 Q 68.3 299.3 69 302.5 Q 69.5 306.5 66.5 307 Q 62.5 307.5 62 304.5 Q 61.3 300.8 63.5 300 Z " /><path fill="rgb(88,115,69)" stroke="rgb(88,115,69)" stroke-width="1" opacity="1" d="M 93.5 309 L 95.5 310 L 97 309.5 Q 98 314 95.5 315 L 86.5 316 L 78 313.5 L 82.5 311 L 93.5 309 Z " /><path fill="rgb(88,115,69)" stroke="rgb(88,115,69)" stroke-width="1" opacity="1" d="M 89.5 323 Q 93.3 322.3 94 324.5 L 91.5 330 L 74.5 331 L 62 329 Q 60.7 325.7 65.5 327 L 76.5 324 L 88.5 324 L 89.5 323 Z " /><path fill="rgb(88,115,69)" stroke="rgb(88,115,69)" stroke-width="1" opacity="1" d="M 22.5 332 L 25 339.5 L 24 339.5 L 22.5 332 Z " /><path fill="rgb(88,115,69)" stroke="rgb(88,115,69)" stroke-width="1" opacity="1" d="M 489.5 334 L 490 336.5 L 487.5 342 L 487 340.5 L 489.5 334 Z " /><path fill="rgb(88,115,69)" stroke="rgb(88,115,69)" stroke-width="1" opacity="1" d="M 25.5 341 L 27 344.5 L 26 344.5 L 25.5 341 Z " /><path fill="rgb(88,115,69)" stroke="rgb(88,115,69)" stroke-width="1" opacity="1" d="M 486.5 343 L 487 344.5 L 485.5 347 L 485 345.5 L 486.5 343 Z " /><path fill="rgb(88,115,69)" stroke="rgb(88,115,69)" stroke-width="1" opacity="1" d="M 27.5 346 Q 50.3 402.7 92.5 440 Q 110.4 456.1 132 468.5 L 130.5 469 Q 97.2 448.8 72 420.5 Q 56.5 403 44 382.5 L 31 357.5 L 27.5 346 Z " /><path fill="rgb(88,115,69)" stroke="rgb(88,115,69)" stroke-width="1" opacity="1" d="M 484.5 348 L 485 349.5 L 474.5 371 L 475 369.5 L 484.5 348 Z " /><path fill="rgb(88,115,69)" stroke="rgb(88,115,69)" stroke-width="1" opacity="1" d="M 473.5 372 L 473 373.5 Q 452.6 413.1 420.5 441 Q 402.8 456.8 381.5 469 L 382.5 467 Q 414.1 448.6 438 422.5 Q 458.6 400.1 473.5 372 Z " /><path fill="rgb(88,115,69)" stroke="rgb(88,115,69)" stroke-width="1" opacity="1" d="M 133.5 469 Q 147.5 478.5 165 484.5 L 162.5 485 L 139.5 474 L 134.5 471 L 133.5 469 Z " /><path fill="rgb(88,115,69)" stroke="rgb(88,115,69)" stroke-width="1" opacity="1" d="M 379.5 469 L 378.5 471 Q 365.2 479.7 348.5 485 L 348.5 484 Q 365.8 478.3 379.5 469 Z " /><path fill="rgb(88,115,69)" stroke="rgb(88,115,69)" stroke-width="1" opacity="1" d="M 166.5 485 L 170 486.5 L 168.5 487 L 166.5 485 Z " /><path fill="rgb(88,115,69)" stroke="rgb(88,115,69)" stroke-width="1" opacity="1" d="M 345.5 485 L 347 485.5 L 343.5 487 L 343.5 486 L 345.5 485 Z " /><path fill="rgb(88,115,69)" stroke="rgb(88,115,69)" stroke-width="1" opacity="1" d="M 171.5 487 L 204.5 497 L 229 500.5 L 221.5 501 L 185.5 493 L 173.5 489 L 171.5 487 Z " /><path fill="rgb(88,115,69)" stroke="rgb(88,115,69)" stroke-width="1" opacity="1" d="M 340.5 487 L 342 487.5 L 334.5 490 L 334.5 489 L 340.5 487 Z " /><path fill="rgb(88,115,69)" stroke="rgb(88,115,69)" stroke-width="1" opacity="1" d="M 331.5 490 L 333 490.5 L 327.5 493 L 303.5 499 L 284.5 501 L 284.5 500 L 303.5 498 L 331.5 490 Z " /><path fill="rgb(88,115,69)" stroke="rgb(88,115,69)" stroke-width="1" opacity="1" d="M 231.5 501 L 240 501.5 L 231.5 502 L 231.5 501 Z " /><path fill="rgb(88,115,69)" stroke="rgb(88,115,69)" stroke-width="1" opacity="1" d="M 272.5 501 L 282 501.5 L 272.5 502 L 272.5 501 Z " /><path fill="rgb(88,115,69)" stroke="rgb(88,115,69)" stroke-width="1" opacity="1" d="M 242.5 502 L 271 502.5 L 242.5 503 L 242.5 502 Z " /><path fill="rgb(246,215,118)" stroke="rgb(246,215,118)" stroke-width="1" opacity="1" d="M 192.5 123 L 211.5 123 Q 212.7 125.3 217.5 124 L 230.5 129 L 237 134.5 L 244 145.5 L 248 157.5 L 243.5 158 L 237 141.5 L 228.5 132 L 219.5 128 L 209.5 126 L 186.5 126 L 170.5 130 L 171.5 128 L 184.5 124 Q 190.8 125.8 192.5 123 Z " /><path fill="rgb(246,215,118)" stroke="rgb(246,215,118)" stroke-width="1" opacity="1" d="M 93.5 125 L 97 132.5 L 102.5 138 L 105 139.5 Q 105.8 141.8 103.5 141 L 97 146.5 L 93.5 154 Q 91.7 145.8 85.5 142 L 82 141 L 83.5 138 L 90 133.5 L 93.5 125 Z " /><path fill="rgb(246,215,118)" stroke="rgb(246,215,118)" stroke-width="1" opacity="1" d="M 163.5 130 L 165 130.5 L 161.5 134 L 160.5 133 L 159 132.5 L 163.5 130 Z " /><path fill="rgb(246,215,118)" stroke="rgb(246,215,118)" stroke-width="1" opacity="1" d="M 208.5 130 L 220.5 132 L 227 137.5 Q 229.6 140.4 229 146.5 L 225 155 L 217.5 159 L 210.5 159 L 202.5 157 L 193 151 Q 189.9 147.4 191 138.5 L 197.5 133 L 208.5 130 Z M 219 138 L 211 148 L 204 146 L 202 150 Q 205 154 214 153 L 222 140 L 219 138 Z " /><path fill="rgb(246,215,118)" stroke="rgb(246,215,118)" stroke-width="1" opacity="1" d="M 323 153 Q 325.7 151.9 325 154.5 L 327 159 L 331 161.5 L 326 165.5 L 324.5 169 L 319.5 163 L 317 161.5 L 323 155.5 L 323 153 Z " /><path fill="rgb(246,215,118)" stroke="rgb(246,215,118)" stroke-width="1" opacity="1" d="M 231.5 162 L 257.5 163 L 272.5 168 L 277 171.5 L 275.5 172 L 263.5 167 L 241.5 165 L 240.5 166 L 224.5 166 L 223.5 167 L 208.5 168 L 208.5 167 L 231.5 162 Z " /><path fill="rgb(246,215,118)" stroke="rgb(246,215,118)" stroke-width="1" opacity="1" d="M 204.5 168 L 207 168.5 L 204.5 169 L 204.5 168 Z " /><path fill="rgb(246,215,118)" stroke="rgb(246,215,118)" stroke-width="1" opacity="1" d="M 257.5 184 L 260 184 L 260 190.5 L 261 191.5 L 261 204.5 L 263 215.5 L 263 227.5 L 264 228.5 L 264 239.5 L 265 240.5 L 265 252.5 L 266 253.5 L 267 274 L 250.5 277 L 237.5 278 L 236.5 279 L 203.5 281 L 202.5 282 L 170.5 285 L 165 281.5 L 161 269.5 L 158 250.5 L 156 246.5 L 156 239.5 L 154 234.5 L 154 228.5 L 150 210.5 L 150 199.5 L 149 198.5 L 152.5 197 L 172 202 Q 170.9 204.7 173.5 204 L 174.5 203 L 194.5 202 L 210.5 197 L 232.5 187 L 243.5 186 L 244.5 185 L 256.5 185 L 257.5 184 Z M 235 207 L 233 208 L 228 214 Q 226 223 230 228 L 237 232 L 241 231 L 245 224 Q 246 216 243 212 Q 240 208 235 207 Z M 184 211 L 178 218 Q 177 227 180 232 L 185 235 L 193 234 L 196 230 L 196 219 L 194 216 Q 192 210 184 211 Z M 224 229 L 217 231 L 207 231 L 200 230 Q 199 239 203 245 L 210 250 Q 218 252 221 248 Q 227 243 226 231 L 224 229 Z M 176 237 L 174 240 L 179 243 L 184 242 L 186 238 Q 183 236 176 237 Z M 248 258 L 246 260 L 247 270 L 250 271 Q 252 262 248 258 Z M 255 258 L 253 260 L 254 270 L 257 270 L 257 260 L 255 258 Z M 239 259 L 239 269 L 240 270 Q 239 274 243 272 L 242 261 L 239 259 Z M 233 260 L 231 262 L 233 272 Q 235 275 236 272 L 235 262 L 233 260 Z " /><path fill="rgb(246,215,118)" stroke="rgb(246,215,118)" stroke-width="1" opacity="1" d="M 147 193 L 154 193.5 L 150.5 196 L 148 195 L 147.5 199 L 147 193 Z " /><path fill="rgb(246,215,118)" stroke="rgb(246,215,118)" stroke-width="1" opacity="1" d="M 142.5 194 L 143 198.5 L 140.5 199 L 138.5 197 L 137.5 198 L 131.5 200 L 132.5 198 L 142.5 194 Z " /><path fill="rgb(246,215,118)" stroke="rgb(246,215,118)" stroke-width="1" opacity="1" d="M 193.5 197 L 196 197.5 L 193.5 198 L 193.5 197 Z " /><path fill="rgb(246,215,118)" stroke="rgb(246,215,118)" stroke-width="1" opacity="1" d="M 127.5 200 L 131 216.5 Q 127.8 220 122 220 L 120 211.5 L 120 204.5 L 127.5 200 Z " /><path fill="rgb(246,215,118)" stroke="rgb(246,215,118)" stroke-width="1" opacity="1" d="M 114.5 207 Q 117.1 206.3 116 209 L 109.5 211 L 109.5 210 L 114.5 207 Z " /><path fill="rgb(246,215,118)" stroke="rgb(246,215,118)" stroke-width="1" opacity="1" d="M 359 207 L 381 207 L 381 217.5 L 380 221.5 L 381 228 L 406.5 228 L 408 226.5 Q 409.4 215.6 407 208.5 L 408.5 207 L 432 207 L 432 250.5 L 429.5 251 L 428.5 250 L 363.5 250 L 361.5 251 L 359 250 L 359 207 Z M 408 237 L 406 239 L 406 246 L 409 247 L 423 247 L 425 243 L 424 239 L 424 237 L 408 237 Z " /><path fill="rgb(246,215,118)" stroke="rgb(246,215,118)" stroke-width="1" opacity="1" d="M 387 207 L 401 207 L 401 222 L 387 222 L 387 207 Z " /><path fill="rgb(246,215,118)" stroke="rgb(246,215,118)" stroke-width="1" opacity="1" d="M 143.5 211 L 144 215.5 L 143 215.5 L 143.5 211 Z " /><path fill="rgb(246,215,118)" stroke="rgb(246,215,118)" stroke-width="1" opacity="1" d="M 235.5 211 L 239 212.5 Q 240 217 237.5 218 L 234 215.5 Q 233.3 211.8 235.5 211 Z " /><path fill="rgb(246,215,118)" stroke="rgb(246,215,118)" stroke-width="1" opacity="1" d="M 187.5 215 Q 191.5 214.5 192 217.5 Q 192.5 221.5 189.5 222 L 186 219.5 Q 185.3 215.8 187.5 215 Z " /><path fill="rgb(246,215,118)" stroke="rgb(246,215,118)" stroke-width="1" opacity="1" d="M 144.5 217 L 145 220.5 L 144 220.5 L 144.5 217 Z " /><path fill="rgb(246,215,118)" stroke="rgb(246,215,118)" stroke-width="1" opacity="1" d="M 149.5 217 L 150 219.5 L 149 219.5 L 149.5 217 Z " /><path fill="rgb(246,215,118)" stroke="rgb(246,215,118)" stroke-width="1" opacity="1" d="M 268.5 224 L 274.5 224 L 283 226 L 281 240 L 294 242 L 295 229 L 312 232 L 309 266 L 298.5 266 Q 293.2 258.8 279.5 260 L 278.5 261 L 272 261 L 272 236.5 L 273 235.5 L 273 227 L 269 227 L 269 225.5 L 268.5 224 Z M 293 251 L 292 257 Q 295 260 304 259 Q 306 258 305 253 L 293 251 Z " /><path fill="rgb(246,215,118)" stroke="rgb(246,215,118)" stroke-width="1" opacity="1" d="M 285 227 L 288 227 Q 286.7 231.1 290 230 Q 288.8 226.3 294 228 L 292 238 L 284 237 L 285 227 Z " /><path fill="rgb(246,215,118)" stroke="rgb(246,215,118)" stroke-width="1" opacity="1" d="M 146.5 233 L 147 237.5 L 146 237.5 L 146.5 233 Z " /><path fill="rgb(246,215,118)" stroke="rgb(246,215,118)" stroke-width="1" opacity="1" d="M 114.5 244 Q 120.8 241.8 119 247.5 L 120 252.5 L 105 259 L 103.5 262 L 92 258 L 98.5 250 L 105.5 246 L 114.5 244 Z " /><path fill="rgb(246,215,118)" stroke="rgb(246,215,118)" stroke-width="1" opacity="1" d="M 128.5 245 L 131 245.5 L 128.5 246 L 128.5 245 Z " /><path fill="rgb(246,215,118)" stroke="rgb(246,215,118)" stroke-width="1" opacity="1" d="M 148.5 247 L 149 250.5 L 148 250.5 L 148.5 247 Z " /><path fill="rgb(246,215,118)" stroke="rgb(246,215,118)" stroke-width="1" opacity="1" d="M 88.5 260 Q 97.4 262.1 102 268.5 Q 107.1 271.9 106 281.5 L 106 283.5 L 103.5 286 L 100 283.5 L 99 280 Q 96.3 278.9 97 281.5 L 98 282.5 L 98 290 Q 95.6 291.8 89.5 291 Q 85.5 288.7 85 284 Q 82.3 282.9 83 285.5 L 84 289.5 L 82.5 289 L 78 285.5 L 77 279.5 Q 80.3 267.3 88.5 260 Z " /><path fill="rgb(246,215,118)" stroke="rgb(246,215,118)" stroke-width="1" opacity="1" d="M 329 262 L 348 262 L 348 281.5 L 349.5 283 L 371.5 283 L 374 280.5 L 374 267.5 L 373 265.5 L 374 262 L 391.5 262 L 393 263.5 L 392 267.5 L 392 304 L 333.5 304 L 329 305 L 329 262 Z M 369 291 L 367 293 L 367 300 L 375 300 L 376 301 Q 381 303 383 300 L 386 300 L 386 293 L 385 291 L 369 291 Z " /><path fill="rgb(246,215,118)" stroke="rgb(246,215,118)" stroke-width="1" opacity="1" d="M 355.5 262 L 366.5 262 L 368 263.5 L 368 275.5 L 366.5 277 L 355.5 277 L 354 275.5 L 354 263.5 L 355.5 262 Z " /><path fill="rgb(246,215,118)" stroke="rgb(246,215,118)" stroke-width="1" opacity="1" d="M 403 262 L 420.5 262 L 422 263.5 L 422 283 L 447 283 L 447 263 L 466 263 L 466 305 L 427.5 305 L 425.5 305 L 423.5 304 L 421.5 304 L 404.5 304 L 403.5 305 L 403 262 Z M 441 291 Q 437 292 438 299 L 441 301 L 456 301 Q 459 299 457 293 L 456 291 L 441 291 Z " /><path fill="rgb(246,215,118)" stroke="rgb(246,215,118)" stroke-width="1" opacity="1" d="M 428 263 L 441 263 L 441 277 L 428 277 L 428 263 Z " /><path fill="rgb(246,215,118)" stroke="rgb(246,215,118)" stroke-width="1" opacity="1" d="M 281 264 Q 290.8 262.6 294 268.5 L 294 273.5 L 288.5 280 L 279 282 Q 277.9 279.3 280.5 280 L 284 277.5 L 281.5 277 L 273 280 L 274 274.5 L 272 267.5 Q 273 265 277.5 266 L 286.5 276 Q 289.9 276.9 288 271.5 L 281 266 L 281 264 Z " /><path fill="rgb(246,215,118)" stroke="rgb(246,215,118)" stroke-width="1" opacity="1" d="M 121.5 276 L 122 278 L 125 279.5 Q 125.6 286.4 129.5 290 Q 132.1 289.3 131 292 Q 125.4 293 124 288.5 L 121 279.5 L 121.5 276 Z " /><path fill="rgb(246,215,118)" stroke="rgb(246,215,118)" stroke-width="1" opacity="1" d="M 154.5 278 L 156 282.5 L 155 282.5 L 154.5 278 Z " /><path fill="rgb(246,215,118)" stroke="rgb(246,215,118)" stroke-width="1" opacity="1" d="M 192.5 293 L 199.5 293 L 213 304.5 Q 213.5 308.5 210.5 309 L 200.5 316 L 198.5 316 L 183.5 300 L 181 298.5 Q 179.7 294.3 184.5 296 L 192.5 293 Z " /><path fill="rgb(246,215,118)" stroke="rgb(246,215,118)" stroke-width="1" opacity="1" d="M 114.5 297 L 120 298 L 110 320.5 L 108 335 L 104 333.5 L 103 324.5 L 109 304.5 L 114.5 297 Z " /><path fill="rgb(246,215,118)" stroke="rgb(246,215,118)" stroke-width="1" opacity="1" d="M 130 298 Q 134.7 297.1 137 299.5 L 135 302.5 L 134 310.5 L 137 318 L 130.5 317 L 125 312.5 L 125 307.5 L 130 298 Z " /><path fill="rgb(246,215,118)" stroke="rgb(246,215,118)" stroke-width="1" opacity="1" d="M 233.5 306 L 235 306.5 L 232.5 308 L 233.5 306 Z " /><path fill="rgb(246,215,118)" stroke="rgb(246,215,118)" stroke-width="1" opacity="1" d="M 247.5 307 L 253 310.5 L 240.5 318 Q 227.3 331.3 210.5 341 L 207 339 L 210.5 334 L 237.5 313 L 247.5 307 Z " /><path fill="rgb(246,215,118)" stroke="rgb(246,215,118)" stroke-width="1" opacity="1" d="M 216.5 308 Q 220.3 307.3 221 309.5 L 218.5 315 Q 214.8 315.8 214 313.5 Q 213.3 308.8 216.5 308 Z " /><path fill="rgb(246,215,118)" stroke="rgb(246,215,118)" stroke-width="1" opacity="1" d="M 250.5 314 L 251.5 316 L 244.5 319 L 221.5 338 L 221 336 L 250.5 314 Z " /><path fill="rgb(246,215,118)" stroke="rgb(246,215,118)" stroke-width="1" opacity="1" d="M 117 322 L 121 323.5 L 120 326 L 117 324.5 L 117 322 Z " /><path fill="rgb(246,215,118)" stroke="rgb(246,215,118)" stroke-width="1" opacity="1" d="M 219.5 338 L 218.5 340 L 219.5 338 Z " /><path fill="rgb(1,6,6)" stroke="rgb(1,6,6)" stroke-width="1" opacity="0.20784313725490197" d="M 0 0 L 512 0 L 512 512 L 0 512 L 0 0 Z M 242 10 L 241 11 L 221 12 L 200 16 L 179 22 L 158 30 Q 114 49 83 81 Q 50 113 30 158 L 20 185 L 16 200 L 12 221 L 11 240 L 10 241 L 11 286 L 16 314 L 23 338 Q 41 386 72 421 Q 106 459 156 482 L 186 493 L 205 498 L 222 501 L 242 502 L 243 503 L 271 503 L 272 502 L 292 501 L 321 495 L 340 489 Q 387 472 421 441 Q 457 408 480 362 L 495 321 L 501 292 L 502 273 L 503 272 L 503 242 L 502 241 L 502 231 L 501 230 L 500 216 L 500 214 L 493 186 L 481 154 Q 465 120 442 94 Q 407 53 356 30 L 329 20 L 305 14 L 286 12 L 285 11 L 273 11 L 272 10 L 242 10 Z " /></svg>